<mxfile host="Electron" agent="Mozilla/5.0 (Windows NT 10.0; Win64; x64) AppleWebKit/537.36 (KHTML, like Gecko) draw.io/25.0.2 Chrome/128.0.6613.186 Electron/32.2.5 Safari/537.36" version="25.0.2">
  <diagram name="Page-1" id="MMxQxbRPXyMN3uM4Re6k">
    <mxGraphModel dx="1434" dy="844" grid="1" gridSize="1" guides="1" tooltips="1" connect="1" arrows="1" fold="1" page="1" pageScale="1" pageWidth="150" pageHeight="150" background="#F5F5F5" math="0" shadow="1">
      <root>
        <mxCell id="0" />
        <mxCell id="1" parent="0" />
        <mxCell id="YH9bnQY_dYv-W6tvIdSY-21" value="" style="group;rounded=0;glass=0;" vertex="1" connectable="0" parent="1">
          <mxGeometry x="25" y="14" width="705" height="572" as="geometry" />
        </mxCell>
        <mxCell id="YH9bnQY_dYv-W6tvIdSY-29" value="" style="rounded=0;whiteSpace=wrap;html=1;container=0;" vertex="1" parent="YH9bnQY_dYv-W6tvIdSY-21">
          <mxGeometry width="163.4348758896616" height="244.27046263345198" as="geometry" />
        </mxCell>
        <mxCell id="YH9bnQY_dYv-W6tvIdSY-2" value="" style="shape=image;verticalLabelPosition=bottom;labelBackgroundColor=default;verticalAlign=top;aspect=fixed;imageAspect=0;image=data:image/svg+xml,PHN2ZyB4bWxuczp4bGluaz0iaHR0cDovL3d3dy53My5vcmcvMTk5OS94bGluayIgeG1sbnM9Imh0dHA6Ly93d3cudzMub3JnLzIwMDAvc3ZnIiB3aWR0aD0iMjU2IiB2aWV3Qm94PSIwIDAgMjU2IDI1NiIgcHJlc2VydmVBc3BlY3RSYXRpbz0ieE1pZFlNaWQiIGhlaWdodD0iMjU2Ij48cmFkaWFsR3JhZGllbnQgcj0iMTIwLjExNTY5NyUiIGdyYWRpZW50VHJhbnNmb3JtPSJtYXRyaXgoLjgzMjUzMSAwIDAgLjgzMjUzMSAwIC4xNjc0NjkpIiBjeT0iOTkuOTk5OTk0JSIgY3g9Ii4wMDAwMTYlIiBpZD0iYSI+PHN0b3Agc3RvcC1jb2xvcj0iIzAwYzgxMiIgb2Zmc2V0PSIwIi8+PHN0b3Agc3RvcC1jb2xvcj0iIzAwNmUwMCIgb2Zmc2V0PSIxIi8+PC9yYWRpYWxHcmFkaWVudD48cmFkaWFsR3JhZGllbnQgcj0iMTIwLjExNTY5NyUiIGdyYWRpZW50VHJhbnNmb3JtPSJtYXRyaXgoMCAuODMyNTM0IC0uODMyNTMxIDAgLS4wMDAwMDMgLS4wMDAwMDQpIiBjeT0iLS4wMDAzODUlIiBjeD0iLjAwMDAwNiUiIGlkPSJiIj48c3RvcCBzdG9wLWNvbG9yPSIjNTZhZmZkIiBvZmZzZXQ9IjAiLz48c3RvcCBzdG9wLWNvbG9yPSIjMDRhM2ZmIiBvZmZzZXQ9IjEiLz48L3JhZGlhbEdyYWRpZW50PjxyYWRpYWxHcmFkaWVudCByPSIxMjAuMTE1Njk3JSIgZ3JhZGllbnRUcmFuc2Zvcm09Im1hdHJpeCgtLjgzMjUzMSAwIDAgLS44MzI1MzEgMS44MzI1MzEgMCkiIGN5PSIuMDAwMDA2JSIgY3g9Ijk5Ljk5OTk4NCUiIGlkPSJjIj48c3RvcCBzdG9wLWNvbG9yPSIjZGYxZjAwIiBvZmZzZXQ9IjAiLz48c3RvcCBzdG9wLWNvbG9yPSIjNTYwZDAwIiBvZmZzZXQ9IjEiLz48L3JhZGlhbEdyYWRpZW50PjxyYWRpYWxHcmFkaWVudCByPSIxMjAuMTE1Njk3JSIgZ3JhZGllbnRUcmFuc2Zvcm09Im1hdHJpeCgwIC0uODMyNTM2IC44MzI1MzEgMCAuMTY3NDYzIDEuODMyNTQzKSIgY3k9IjEwMC4wMDA2OTQlIiBjeD0iOTkuOTk5OTk0JSIgaWQ9ImQiPjxzdG9wIHN0b3AtY29sb3I9IiMwMGZmZmQiIG9mZnNldD0iMCIvPjxzdG9wIHN0b3AtY29sb3I9IiMwMGRhZmYiIG9mZnNldD0iMSIvPjwvcmFkaWFsR3JhZGllbnQ+PHJhZGlhbEdyYWRpZW50IHI9Ijk5Ljk5OTY0JSIgZ3JhZGllbnRUcmFuc2Zvcm09Im1hdHJpeCgxIDAgMCAxLjAwMDAwMzUyIDAgLS4wMDAwMDQpIiBjeT0iOTkuOTk5OTk0JSIgY3g9Ii4wMDAzNTUlIiBpZD0iZSI+PHN0b3Agc3RvcC1jb2xvcj0iIzAwODIwMCIgb2Zmc2V0PSIwIi8+PHN0b3Agc3RvcC1jb2xvcj0iIzAwNzUwMCIgb2Zmc2V0PSIxIi8+PC9yYWRpYWxHcmFkaWVudD48cmFkaWFsR3JhZGllbnQgcj0iOTkuOTk5OTA0JSIgZ3JhZGllbnRUcmFuc2Zvcm09Im1hdHJpeCgwIDEgLTEuMDAwMDAwMDMgMCAuMDAwMDAxIC4wMDAwMDEpIiBjeT0iLjAwMDA5MSUiIGN4PSIuMDAwMDA2JSIgaWQ9ImYiPjxzdG9wIHN0b3AtY29sb3I9IiMzMTY2ZDQiIG9mZnNldD0iMCIvPjxzdG9wIHN0b3AtY29sb3I9IiMxYTUwOWUiIG9mZnNldD0iMSIvPjwvcmFkaWFsR3JhZGllbnQ+PHJhZGlhbEdyYWRpZW50IHI9IjEwMC4wMDAzNSUiIGdyYWRpZW50VHJhbnNmb3JtPSJtYXRyaXgoLTEgMCAwIC0uOTk5OTk2NTQgMi4wMDAwMDggMCkiIGN5PSIuMDAwMDA2JSIgY3g9IjEwMC4wMDAzNTUlIiBpZD0iZyI+PHN0b3Agc3RvcC1jb2xvcj0iIzhlMTQwMCIgb2Zmc2V0PSIwIi8+PHN0b3Agc3RvcC1jb2xvcj0iIzRiMGIwMCIgb2Zmc2V0PSIxIi8+PC9yYWRpYWxHcmFkaWVudD48cmFkaWFsR3JhZGllbnQgcj0iOTkuOTk5MzMzJSIgZ3JhZGllbnRUcmFuc2Zvcm09Im1hdHJpeCgwIC0xIDEuMDAwMDA3MDEgMCAtLjAwMDAxNyAyLjAwMDAxKSIgY3k9IjEwMC4wMDEwNDIlIiBjeD0iOTkuOTk5OTk0JSIgaWQ9ImgiPjxzdG9wIHN0b3AtY29sb3I9IiMwMDkwYzQiIG9mZnNldD0iMCIvPjxzdG9wIHN0b3AtY29sb3I9IiMwMDVkOGMiIG9mZnNldD0iMSIvPjwvcmFkaWFsR3JhZGllbnQ+PHJhZGlhbEdyYWRpZW50IHI9Ijk5Ljk5OTk5MiUiIGdyYWRpZW50VHJhbnNmb3JtPSJtYXRyaXgoMSAwIDAgLjk5OTk4NjAzIDAgLjAwMDAxNCkiIGN5PSI5OS45OTg5MDIlIiBjeD0iMCUiIGlkPSJpIj48c3RvcCBzdG9wLWNvbG9yPSIjMDBjZDFjIiBvZmZzZXQ9IjAiLz48c3RvcCBzdG9wLWNvbG9yPSIjMDBlOTUwIiBvZmZzZXQ9IjEiLz48L3JhZGlhbEdyYWRpZW50PjxyYWRpYWxHcmFkaWVudCByPSI5OS45OTk5OTIlIiBncmFkaWVudFRyYW5zZm9ybT0ibWF0cml4KDAgMSAtMS4wMDAwMDA3NiAwIDAgMCkiIGN5PSItLjAwMDAxMiUiIGN4PSItLjAwMDAwNyUiIGlkPSJqIj48c3RvcCBzdG9wLWNvbG9yPSIjYjFjOGZkIiBvZmZzZXQ9IjAiLz48c3RvcCBzdG9wLWNvbG9yPSIjN2VjM2ZkIiBvZmZzZXQ9IjEiLz48L3JhZGlhbEdyYWRpZW50PjxyYWRpYWxHcmFkaWVudCByPSI5OS45OTk5OTIlIiBncmFkaWVudFRyYW5zZm9ybT0ibWF0cml4KC0xIDAgMCAtMS4wMDAwMDA3NiAyIDApIiBjeT0iLS4wMDAwMDclIiBjeD0iOTkuOTk5OTg3JSIgaWQ9ImsiPjxzdG9wIHN0b3AtY29sb3I9IiNlMTJhMDAiIG9mZnNldD0iMCIvPjxzdG9wIHN0b3AtY29sb3I9IiNiNjJmMDAiIG9mZnNldD0iMSIvPjwvcmFkaWFsR3JhZGllbnQ+PHJhZGlhbEdyYWRpZW50IHI9Ijk5Ljk5ODM2NCUiIGdyYWRpZW50VHJhbnNmb3JtPSJtYXRyaXgoMCAtMSAxLjAwMDAxNjk1IDAgLS4wMDAwMTcgMikiIGN5PSIxMDAlIiBjeD0iMTAwLjAwMDAwNyUiIGlkPSJsIj48c3RvcCBzdG9wLWNvbG9yPSIjMDBiNmRkIiBvZmZzZXQ9IjAiLz48c3RvcCBzdG9wLWNvbG9yPSIjMGZmIiBvZmZzZXQ9IjEiLz48L3JhZGlhbEdyYWRpZW50PjxwYXRoIGZpbGw9InVybCgjYSkiIGQ9Im0xNzkuMiAyMzAuNGg3Ni44bC0xMjIuODgtMTAyLjRjLTEuNjg3IDM3LjE5MyAxNC42ODcgNzMuNTggNDYuMDggMTAyLjQiLz48cGF0aCBmaWxsPSJ1cmwoI2IpIiBkPSJtMjUuNiAxNzkuMnY3Ni44bDEwMi40LTEyMi44OGMtMS43NDYtLjA3OS0zLjQ4My0uMTE4LTUuMjI1LS4xMTgtMzUuMzYuMDAyLTY5LjcwOCAxNi4yNzktOTcuMTc1IDQ2LjE5OCIvPjxwYXRoIGZpbGw9InVybCgjYykiIGQ9Im0wIDI1LjYgMTIyLjg4IDEwMi40YzEuNjg3LTM3LjE5Mi0xNC42ODctNzMuNTgtNDYuMDgtMTAyLjR6Ii8+PHBhdGggZmlsbD0idXJsKCNkKSIgZD0ibTIzMC40IDAtMTAyLjQgMTIyLjg3OWMzNy4xOTMgMS42ODggNzMuNTgtMTQuNjg3IDEwMi40LTQ2LjA4eiIvPjxwYXRoIGZpbGw9InVybCgjZSkiIGQ9Im0xMjggMTI4Yy0xMS40NzkgMjkuNzU1LTkuNzQ1IDYwLjA4NiA1LjEyIDg5LjYwMSAxNS4zNiA3LjY3OSAyOC4xNiAxMi43OTkgNDYuMDggMTIuNzk5LTMxLjM5My0yOC44Mi00Ny43NjctNjUuMjA3LTQ2LjA4LTEwMi40eiIvPjxwYXRoIGZpbGw9InVybCgjZikiIGQ9Im0zOC40IDEzMy4xMmMtNy42NzkgMTUuMzYxLTEyLjggMjguMTYtMTIuOCA0Ni4wOCAyOC44MTktMzEuMzkzIDY1LjIwNy00Ny43NjYgMTAyLjQtNDYuMDh2LTUuMTJjLTEyLjk0NC00Ljk5My0yNS45OTQtNy40ODYtMzkuMDQtNy40ODYtMTYuOTQ2LjAwMS0zMy44ODQgNC4yMDctNTAuNTYgMTIuNjA2Ii8+PHBhdGggZmlsbD0idXJsKCNnKSIgZD0ibTEyMi44OCAxMjhoNS4xMmMxMS40NzgtMjkuNzU1IDkuNzQ1LTYwLjA4Ny01LjEyLTg5LjYtMTUuMzYtNy42OC0yOC4xNTktMTIuOC00Ni4wOC0xMi44IDMxLjM5MyAyOC44MiA0Ny43NjcgNjUuMjA4IDQ2LjA4IDEwMi40Ii8+PHBhdGggZmlsbD0idXJsKCNoKSIgZD0ibTEyOCAxMjIuODc5djUuMTIxYzI5Ljc1NSAxMS40NzggNjAuMDg2IDkuNzQ0IDg5LjYtNS4xMjEgNy42OC0xNS4zNTggMTIuOC0yOC4xNTggMTIuOC00Ni4wOC0yOC44MiAzMS4zOTMtNjUuMjA3IDQ3Ljc2OC0xMDIuNCA0Ni4wOCIvPjxwYXRoIGZpbGw9InVybCgjaSkiIGQ9Im03MS42OCAxNjYuNCA2MS40NCA1MS4yMDFjLTE0Ljg2NS0yOS41MTUtMTYuNTk5LTU5Ljg0Ni01LjEyLTg5LjYwMS0xLjc3Ni0uNTkyLTMuODU4LS44NzYtNi4xNTgtLjg3Ni0xNy41OTkuMDAxLTQ3Ljg5OCAxNi42MzUtNTAuMTYyIDM5LjI3NiIvPjxwYXRoIGZpbGw9InVybCgjaikiIGQ9Im0zOC40IDEzMy4xMmMyOS41MTQtMTQuODY1IDU5Ljg0NS0xNi41OTggODkuNi01LjEyIDUuMTItMTUuMzU5LTEyLjgtNTMuNzYtMzguNC01Ni4zMnoiLz48cGF0aCBmaWxsPSJ1cmwoI2spIiBkPSJtMTI4IDEyOGMxNS4zNiA1LjEyIDUzLjc1OS0xMi44IDU2LjMyLTM4LjRsLTYxLjQ0LTUxLjJjMTQuODY1IDI5LjUxMyAxNi41OTggNTkuODQ1IDUuMTIgODkuNiIvPjxwYXRoIGZpbGw9InVybCgjbCkiIGQ9Im0xMjggMTI4Yy01LjEyIDE1LjM2MSAxMi44IDUzLjc2IDM4LjQgNTYuMzJsNTEuMi02MS40NDFjLTI5LjUxNCAxNC44NjUtNTkuODQ1IDE2LjU5OS04OS42IDUuMTIxIi8+PHBhdGggZD0ibTEyNy45OTk4IDEyMS42MDA0YzMuNTM1IDAgNi40IDIuODY1IDYuNCA2LjM5OSAwIDMuNTM2LTIuODY1IDYuNDAxLTYuNCA2LjQwMS0zLjUzNCAwLTYuMzk5LTIuODY1LTYuMzk5LTYuNDAxIDAtMy41MzQgMi44NjUtNi4zOTkgNi4zOTktNi4zOTkiLz48L3N2Zz4=;container=0;" vertex="1" parent="YH9bnQY_dYv-W6tvIdSY-21">
          <mxGeometry width="25.77093669465822" height="25.77093669465822" as="geometry" />
        </mxCell>
        <mxCell id="YH9bnQY_dYv-W6tvIdSY-22" value="Airflow Orchestration" style="text;html=1;align=center;verticalAlign=middle;whiteSpace=wrap;rounded=0;container=0;" vertex="1" parent="YH9bnQY_dYv-W6tvIdSY-21">
          <mxGeometry x="27.239145981610264" width="118.03629925364447" height="30.533807829181498" as="geometry" />
        </mxCell>
        <mxCell id="YH9bnQY_dYv-W6tvIdSY-34" value="" style="group" vertex="1" connectable="0" parent="YH9bnQY_dYv-W6tvIdSY-21">
          <mxGeometry x="9.079715327203422" y="40.711743772241995" width="145.27544523525475" height="40.711743772241995" as="geometry" />
        </mxCell>
        <mxCell id="YH9bnQY_dYv-W6tvIdSY-10" value="&lt;font style=&quot;font-size: 10px;&quot;&gt;&lt;br&gt;Kafka producer&lt;/font&gt;" style="rounded=1;whiteSpace=wrap;html=1;container=0;" vertex="1" parent="YH9bnQY_dYv-W6tvIdSY-34">
          <mxGeometry width="145.27544523525475" height="40.711743772241995" as="geometry" />
        </mxCell>
        <mxCell id="YH9bnQY_dYv-W6tvIdSY-7" value="" style="shape=image;verticalLabelPosition=bottom;labelBackgroundColor=default;verticalAlign=top;aspect=fixed;imageAspect=0;image=data:image/svg+xml,PHN2ZyB4bWxuczp4bGluaz0iaHR0cDovL3d3dy53My5vcmcvMTk5OS94bGluayIgeG1sbnM9Imh0dHA6Ly93d3cudzMub3JnLzIwMDAvc3ZnIiB3aWR0aD0iMjU2IiB2aWV3Qm94PSIwIDAgMjU2IDI1NSIgcHJlc2VydmVBc3BlY3RSYXRpbz0ieE1pZFlNaWQiIGhlaWdodD0iMjU1Ij48bGluZWFyR3JhZGllbnQgeTI9Ijc4LjIwMDg1NCUiIHkxPSIxMi4wMzkzOTMlIiB4Mj0iNzkuNjM4ODMzJSIgeDE9IjEyLjk1OTM1OSUiIGlkPSJhIj48c3RvcCBzdG9wLWNvbG9yPSIjMzg3ZWI4IiBvZmZzZXQ9IjAiLz48c3RvcCBzdG9wLWNvbG9yPSIjMzY2OTk0IiBvZmZzZXQ9IjEiLz48L2xpbmVhckdyYWRpZW50PjxsaW5lYXJHcmFkaWVudCB5Mj0iODguNDI5MDM3JSIgeTE9IjIwLjU3OTE4MSUiIHgyPSI5MC43NDE1MzMlIiB4MT0iMTkuMTI3NTI1JSIgaWQ9ImIiPjxzdG9wIHN0b3AtY29sb3I9IiNmZmUwNTIiIG9mZnNldD0iMCIvPjxzdG9wIHN0b3AtY29sb3I9IiNmZmMzMzEiIG9mZnNldD0iMSIvPjwvbGluZWFyR3JhZGllbnQ+PHBhdGggZmlsbD0idXJsKCNhKSIgZD0ibTEyNi45MTU4NjYuMDcyMjc1NTVjLTY0LjgzMjI4MjkuMDAwMDA0NjItNjAuNzgzNzM3MiAyOC4xMTUxODkyNS02MC43ODM3MzcyIDI4LjExNTE4OTI1bC4wNzIyNzU1IDI5LjEyNzA0NjdoNjEuODY3ODcxN3Y4Ljc0NTM0MTdoLTg2LjQ0MTU1ODlzLTQxLjQ4NjE2Ni00LjcwNDkwOTQtNDEuNDg2MTY2IDYwLjcxMTQ2MThjLS4wMDAwMDQ2MyA2NS40MTYzNTggMzYuMjEwMDUwOCA2My4wOTY1NTYgMzYuMjEwMDUwOCA2My4wOTY1NTZoMjEuNjEwMzg5NnYtMzAuMzU1NzMxcy0xLjE2NDg1NTItMzYuMjEwMDUxIDM1LjYzMTg0NjQtMzYuMjEwMDUxaDYxLjM2MTk0MjFzMzQuNDc1NDM4LjU1NzI5NyAzNC40NzU0MzgtMzMuMzE5MDI4NnYtNTYuMDEzNTUxNmMwLS4wMDAwMDQ3IDUuMjM0MzIzLTMzLjg5NzIzMzI1LTYyLjUxODM1Mi0zMy44OTcyMzMyNXptLTM0LjExNDA1OTEgMTkuNTg2Njc0MTVjNi4xNTUzOTk5LS4wMDAwMDQ1IDExLjEzMDQzNTEgNC45NzUwMzQ5IDExLjEzMDQzNTEgMTEuMTMwNDM0OC4wMDAwMDQgNi4xNTUzOTk5LTQuOTc1MDM1MiAxMS4xMzA0MzQ4LTExLjEzMDQzNTEgMTEuMTMwNDM0OC02LjE1NTM5OTkuMDAwMDA0Ni0xMS4xMzA0MzQ4LTQuOTc1MDM0OS0xMS4xMzA0MzQ4LTExLjEzMDQzNDgtLjAwMDAwNDctNi4xNTUzOTk5IDQuOTc1MDM0OS0xMS4xMzA0MzQ4IDExLjEzMDQzNDgtMTEuMTMwNDM0OHoiLz48cGF0aCBmaWxsPSJ1cmwoI2IpIiBkPSJtMTI4Ljc1NzEwMSAyNTQuMTI2MjcxYzY0LjgzMjMwMiAwIDYwLjc4MzczOC0yOC4xMTUxOSA2MC43ODM3MzgtMjguMTE1MTlsLS4wNzIyNzUtMjkuMTI3MDQ2aC02MS44Njc4NzJ2LTguNzQ1MzQyaDg2LjQ0MTU1OXM0MS40ODYxNjYgNC43MDQ4OTYgNDEuNDg2MTY2LTYwLjcxMTQ4NWMuMDAwMDIzLTY1LjQxNjM1MTQtMzYuMjEwMDUxLTYzLjA5NjU0OTEtMzYuMjEwMDUxLTYzLjA5NjU0OTFoLTIxLjYxMDM5djMwLjM1NTcyNDNzMS4xNjQ4NzQgMzYuMjEwMDUwOC0zNS42MzE4NDYgMzYuMjEwMDUwOGgtNjEuMzYxOTQ4cy0zNC40NzU0MzctLjU1NzI5Ni0zNC40NzU0MzcgMzMuMzE5MDUydjU2LjAxMzU1MnMtNS4yMzQzMjI1IDMzLjg5NzIzMyA2Mi41MTgzNTYgMzMuODk3MjMzem0zNC4xMTQwNTktMTkuNTg2Njc0Yy02LjE1NTQwMSAwLTExLjEzMDQzNC00Ljk3NTAzMy0xMS4xMzA0MzQtMTEuMTMwNDM1IDAtNi4xNTU0MDMgNC45NzUwMzMtMTEuMTMwNDM1IDExLjEzMDQzNC0xMS4xMzA0MzUgNi4xNTU0MDMgMCAxMS4xMzA0MzUgNC45NzUwMzIgMTEuMTMwNDM1IDExLjEzMDQzNS4wMDAwMjMgNi4xNTU0MDItNC45NzUwMzIgMTEuMTMwNDM1LTExLjEzMDQzNSAxMS4xMzA0MzV6Ii8+PC9zdmc+;container=0;" vertex="1" parent="YH9bnQY_dYv-W6tvIdSY-34">
          <mxGeometry x="4.3491836417304315" width="11.167405901018562" height="11.1244543398608" as="geometry" />
        </mxCell>
        <mxCell id="YH9bnQY_dYv-W6tvIdSY-41" style="edgeStyle=orthogonalEdgeStyle;rounded=0;orthogonalLoop=1;jettySize=auto;html=1;" edge="1" parent="YH9bnQY_dYv-W6tvIdSY-21" source="YH9bnQY_dYv-W6tvIdSY-31" target="YH9bnQY_dYv-W6tvIdSY-25">
          <mxGeometry relative="1" as="geometry" />
        </mxCell>
        <mxCell id="YH9bnQY_dYv-W6tvIdSY-42" style="edgeStyle=orthogonalEdgeStyle;rounded=0;orthogonalLoop=1;jettySize=auto;html=1;" edge="1" parent="YH9bnQY_dYv-W6tvIdSY-21" source="YH9bnQY_dYv-W6tvIdSY-12" target="YH9bnQY_dYv-W6tvIdSY-25">
          <mxGeometry relative="1" as="geometry" />
        </mxCell>
        <mxCell id="YH9bnQY_dYv-W6tvIdSY-43" style="edgeStyle=orthogonalEdgeStyle;rounded=0;orthogonalLoop=1;jettySize=auto;html=1;entryX=0;entryY=0.5;entryDx=0;entryDy=0;" edge="1" parent="YH9bnQY_dYv-W6tvIdSY-21" source="YH9bnQY_dYv-W6tvIdSY-17" target="YH9bnQY_dYv-W6tvIdSY-25">
          <mxGeometry relative="1" as="geometry" />
        </mxCell>
        <mxCell id="YH9bnQY_dYv-W6tvIdSY-40" style="edgeStyle=orthogonalEdgeStyle;rounded=0;orthogonalLoop=1;jettySize=auto;html=1;" edge="1" parent="YH9bnQY_dYv-W6tvIdSY-21" source="YH9bnQY_dYv-W6tvIdSY-10" target="YH9bnQY_dYv-W6tvIdSY-23">
          <mxGeometry relative="1" as="geometry" />
        </mxCell>
        <mxCell id="YH9bnQY_dYv-W6tvIdSY-31" value="&lt;span style=&quot;color: rgba(0, 0, 0, 0); font-family: monospace; font-size: 0px; text-align: start; text-wrap: nowrap;&quot;&gt;%3CmxGraphModel%3E%3Croot%3E%3CmxCell%20id%3D%220%22%2F%3E%3CmxCell%20id%3D%221%22%20parent%3D%220%22%2F%3E%3CmxCell%20id%3D%222%22%20value%3D%22%22%20style%3D%22shape%3Dimage%3BverticalLabelPosition%3Dbottom%3BlabelBackgroundColor%3Ddefault%3BverticalAlign%3Dtop%3Baspect%3Dfixed%3BimageAspect%3D0%3Bimage%3Ddata%3Aimage%2Fsvg%2Bxml%2CPHN2ZyB4bWxuczp4bGluaz0iaHR0cDovL3d3dy53My5vcmcvMTk5OS94bGluayIgeG1sbnM9Imh0dHA6Ly93d3cudzMub3JnLzIwMDAvc3ZnIiB3aWR0aD0iMjU2IiB2aWV3Qm94PSIwIDAgMjU2IDI1NSIgcHJlc2VydmVBc3BlY3RSYXRpbz0ieE1pZFlNaWQiIGhlaWdodD0iMjU1Ij48bGluZWFyR3JhZGllbnQgeTI9Ijc4LjIwMDg1NCUiIHkxPSIxMi4wMzkzOTMlIiB4Mj0iNzkuNjM4ODMzJSIgeDE9IjEyLjk1OTM1OSUiIGlkPSJhIj48c3RvcCBzdG9wLWNvbG9yPSIjMzg3ZWI4IiBvZmZzZXQ9IjAiLz48c3RvcCBzdG9wLWNvbG9yPSIjMzY2OTk0IiBvZmZzZXQ9IjEiLz48L2xpbmVhckdyYWRpZW50PjxsaW5lYXJHcmFkaWVudCB5Mj0iODguNDI5MDM3JSIgeTE9IjIwLjU3OTE4MSUiIHgyPSI5MC43NDE1MzMlIiB4MT0iMTkuMTI3NTI1JSIgaWQ9ImIiPjxzdG9wIHN0b3AtY29sb3I9IiNmZmUwNTIiIG9mZnNldD0iMCIvPjxzdG9wIHN0b3AtY29sb3I9IiNmZmMzMzEiIG9mZnNldD0iMSIvPjwvbGluZWFyR3JhZGllbnQ%2BPHBhdGggZmlsbD0idXJsKCNhKSIgZD0ibTEyNi45MTU4NjYuMDcyMjc1NTVjLTY0LjgzMjI4MjkuMDAwMDA0NjItNjAuNzgzNzM3MiAyOC4xMTUxODkyNS02MC43ODM3MzcyIDI4LjExNTE4OTI1bC4wNzIyNzU1IDI5LjEyNzA0NjdoNjEuODY3ODcxN3Y4Ljc0NTM0MTdoLTg2LjQ0MTU1ODlzLTQxLjQ4NjE2Ni00LjcwNDkwOTQtNDEuNDg2MTY2IDYwLjcxMTQ2MThjLS4wMDAwMDQ2MyA2NS40MTYzNTggMzYuMjEwMDUwOCA2My4wOTY1NTYgMzYuMjEwMDUwOCA2My4wOTY1NTZoMjEuNjEwMzg5NnYtMzAuMzU1NzMxcy0xLjE2NDg1NTItMzYuMjEwMDUxIDM1LjYzMTg0NjQtMzYuMjEwMDUxaDYxLjM2MTk0MjFzMzQuNDc1NDM4LjU1NzI5NyAzNC40NzU0MzgtMzMuMzE5MDI4NnYtNTYuMDEzNTUxNmMwLS4wMDAwMDQ3IDUuMjM0MzIzLTMzLjg5NzIzMzI1LTYyLjUxODM1Mi0zMy44OTcyMzMyNXptLTM0LjExNDA1OTEgMTkuNTg2Njc0MTVjNi4xNTUzOTk5LS4wMDAwMDQ1IDExLjEzMDQzNTEgNC45NzUwMzQ5IDExLjEzMDQzNTEgMTEuMTMwNDM0OC4wMDAwMDQgNi4xNTUzOTk5LTQuOTc1MDM1MiAxMS4xMzA0MzQ4LTExLjEzMDQzNTEgMTEuMTMwNDM0OC02LjE1NTM5OTkuMDAwMDA0Ni0xMS4xMzA0MzQ4LTQuOTc1MDM0OS0xMS4xMzA0MzQ4LTExLjEzMDQzNDgtLjAwMDAwNDctNi4xNTUzOTk5IDQuOTc1MDM0OS0xMS4xMzA0MzQ4IDExLjEzMDQzNDgtMTEuMTMwNDM0OHoiLz48cGF0aCBmaWxsPSJ1cmwoI2IpIiBkPSJtMTI4Ljc1NzEwMSAyNTQuMTI2MjcxYzY0LjgzMjMwMiAwIDYwLjc4MzczOC0yOC4xMTUxOSA2MC43ODM3MzgtMjguMTE1MTlsLS4wNzIyNzUtMjkuMTI3MDQ2aC02MS44Njc4NzJ2LTguNzQ1MzQyaDg2LjQ0MTU1OXM0MS40ODYxNjYgNC43MDQ4OTYgNDEuNDg2MTY2LTYwLjcxMTQ4NWMuMDAwMDIzLTY1LjQxNjM1MTQtMzYuMjEwMDUxLTYzLjA5NjU0OTEtMzYuMjEwMDUxLTYzLjA5NjU0OTFoLTIxLjYxMDM5djMwLjM1NTcyNDNzMS4xNjQ4NzQgMzYuMjEwMDUwOC0zNS42MzE4NDYgMzYuMjEwMDUwOGgtNjEuMzYxOTQ4cy0zNC40NzU0MzctLjU1NzI5Ni0zNC40NzU0MzcgMzMuMzE5MDUydjU2LjAxMzU1MnMtNS4yMzQzMjI1IDMzLjg5NzIzMyA2Mi41MTgzNTYgMzMuODk3MjMzem0zNC4xMTQwNTktMTkuNTg2Njc0Yy02LjE1NTQwMSAwLTExLjEzMDQzNC00Ljk3NTAzMy0xMS4xMzA0MzQtMTEuMTMwNDM1IDAtNi4xNTU0MDMgNC45NzUwMzMtMTEuMTMwNDM1IDExLjEzMDQzNC0xMS4xMzA0MzUgNi4xNTU0MDMgMCAxMS4xMzA0MzUgNC45NzUwMzIgMTEuMTMwNDM1IDExLjEzMDQzNS4wMDAwMjMgNi4xNTU0MDItNC45NzUwMzIgMTEuMTMwNDM1LTExLjEzMDQzNSAxMS4xMzA0MzV6Ii8%2BPC9zdmc%2B%3Bcontainer%3D0%3B%22%20vertex%3D%221%22%20parent%3D%221%22%3E%3CmxGeometry%20x%3D%2264.78999999999999%22%20y%3D%2290%22%20width%3D%2213%22%20height%3D%2212.95%22%20as%3D%22geometry%22%2F%3E%3C%2FmxCell%3E%3C%2Froot%3E%3C%2FmxGraphModel%3E&lt;/span&gt;&lt;br&gt;Kafka consumer" style="rounded=1;whiteSpace=wrap;html=1;container=0;" vertex="1" parent="YH9bnQY_dYv-W6tvIdSY-21">
          <mxGeometry x="9.079715327203425" y="88.54804270462634" width="145.27544523525475" height="40.711743772241995" as="geometry" />
        </mxCell>
        <mxCell id="YH9bnQY_dYv-W6tvIdSY-37" value="" style="shape=image;verticalLabelPosition=bottom;labelBackgroundColor=default;verticalAlign=top;aspect=fixed;imageAspect=0;image=data:image/svg+xml,PHN2ZyB4bWxuczp4bGluaz0iaHR0cDovL3d3dy53My5vcmcvMTk5OS94bGluayIgeG1sbnM9Imh0dHA6Ly93d3cudzMub3JnLzIwMDAvc3ZnIiB3aWR0aD0iMjU2IiB2aWV3Qm94PSIwIDAgMjU2IDI1NSIgcHJlc2VydmVBc3BlY3RSYXRpbz0ieE1pZFlNaWQiIGhlaWdodD0iMjU1Ij48bGluZWFyR3JhZGllbnQgeTI9Ijc4LjIwMDg1NCUiIHkxPSIxMi4wMzkzOTMlIiB4Mj0iNzkuNjM4ODMzJSIgeDE9IjEyLjk1OTM1OSUiIGlkPSJhIj48c3RvcCBzdG9wLWNvbG9yPSIjMzg3ZWI4IiBvZmZzZXQ9IjAiLz48c3RvcCBzdG9wLWNvbG9yPSIjMzY2OTk0IiBvZmZzZXQ9IjEiLz48L2xpbmVhckdyYWRpZW50PjxsaW5lYXJHcmFkaWVudCB5Mj0iODguNDI5MDM3JSIgeTE9IjIwLjU3OTE4MSUiIHgyPSI5MC43NDE1MzMlIiB4MT0iMTkuMTI3NTI1JSIgaWQ9ImIiPjxzdG9wIHN0b3AtY29sb3I9IiNmZmUwNTIiIG9mZnNldD0iMCIvPjxzdG9wIHN0b3AtY29sb3I9IiNmZmMzMzEiIG9mZnNldD0iMSIvPjwvbGluZWFyR3JhZGllbnQ+PHBhdGggZmlsbD0idXJsKCNhKSIgZD0ibTEyNi45MTU4NjYuMDcyMjc1NTVjLTY0LjgzMjI4MjkuMDAwMDA0NjItNjAuNzgzNzM3MiAyOC4xMTUxODkyNS02MC43ODM3MzcyIDI4LjExNTE4OTI1bC4wNzIyNzU1IDI5LjEyNzA0NjdoNjEuODY3ODcxN3Y4Ljc0NTM0MTdoLTg2LjQ0MTU1ODlzLTQxLjQ4NjE2Ni00LjcwNDkwOTQtNDEuNDg2MTY2IDYwLjcxMTQ2MThjLS4wMDAwMDQ2MyA2NS40MTYzNTggMzYuMjEwMDUwOCA2My4wOTY1NTYgMzYuMjEwMDUwOCA2My4wOTY1NTZoMjEuNjEwMzg5NnYtMzAuMzU1NzMxcy0xLjE2NDg1NTItMzYuMjEwMDUxIDM1LjYzMTg0NjQtMzYuMjEwMDUxaDYxLjM2MTk0MjFzMzQuNDc1NDM4LjU1NzI5NyAzNC40NzU0MzgtMzMuMzE5MDI4NnYtNTYuMDEzNTUxNmMwLS4wMDAwMDQ3IDUuMjM0MzIzLTMzLjg5NzIzMzI1LTYyLjUxODM1Mi0zMy44OTcyMzMyNXptLTM0LjExNDA1OTEgMTkuNTg2Njc0MTVjNi4xNTUzOTk5LS4wMDAwMDQ1IDExLjEzMDQzNTEgNC45NzUwMzQ5IDExLjEzMDQzNTEgMTEuMTMwNDM0OC4wMDAwMDQgNi4xNTUzOTk5LTQuOTc1MDM1MiAxMS4xMzA0MzQ4LTExLjEzMDQzNTEgMTEuMTMwNDM0OC02LjE1NTM5OTkuMDAwMDA0Ni0xMS4xMzA0MzQ4LTQuOTc1MDM0OS0xMS4xMzA0MzQ4LTExLjEzMDQzNDgtLjAwMDAwNDctNi4xNTUzOTk5IDQuOTc1MDM0OS0xMS4xMzA0MzQ4IDExLjEzMDQzNDgtMTEuMTMwNDM0OHoiLz48cGF0aCBmaWxsPSJ1cmwoI2IpIiBkPSJtMTI4Ljc1NzEwMSAyNTQuMTI2MjcxYzY0LjgzMjMwMiAwIDYwLjc4MzczOC0yOC4xMTUxOSA2MC43ODM3MzgtMjguMTE1MTlsLS4wNzIyNzUtMjkuMTI3MDQ2aC02MS44Njc4NzJ2LTguNzQ1MzQyaDg2LjQ0MTU1OXM0MS40ODYxNjYgNC43MDQ4OTYgNDEuNDg2MTY2LTYwLjcxMTQ4NWMuMDAwMDIzLTY1LjQxNjM1MTQtMzYuMjEwMDUxLTYzLjA5NjU0OTEtMzYuMjEwMDUxLTYzLjA5NjU0OTFoLTIxLjYxMDM5djMwLjM1NTcyNDNzMS4xNjQ4NzQgMzYuMjEwMDUwOC0zNS42MzE4NDYgMzYuMjEwMDUwOGgtNjEuMzYxOTQ4cy0zNC40NzU0MzctLjU1NzI5Ni0zNC40NzU0MzcgMzMuMzE5MDUydjU2LjAxMzU1MnMtNS4yMzQzMjI1IDMzLjg5NzIzMyA2Mi41MTgzNTYgMzMuODk3MjMzem0zNC4xMTQwNTktMTkuNTg2Njc0Yy02LjE1NTQwMSAwLTExLjEzMDQzNC00Ljk3NTAzMy0xMS4xMzA0MzQtMTEuMTMwNDM1IDAtNi4xNTU0MDMgNC45NzUwMzMtMTEuMTMwNDM1IDExLjEzMDQzNC0xMS4xMzA0MzUgNi4xNTU0MDMgMCAxMS4xMzA0MzUgNC45NzUwMzIgMTEuMTMwNDM1IDExLjEzMDQzNS4wMDAwMjMgNi4xNTU0MDItNC45NzUwMzIgMTEuMTMwNDM1LTExLjEzMDQzNSAxMS4xMzA0MzV6Ii8+PC9zdmc+;container=0;" vertex="1" parent="YH9bnQY_dYv-W6tvIdSY-21">
          <mxGeometry x="15.435516056245806" y="92.67010676156585" width="11.167405901018562" height="11.1244543398608" as="geometry" />
        </mxCell>
        <mxCell id="YH9bnQY_dYv-W6tvIdSY-12" value="&lt;font style=&quot;font-size: 10px;&quot;&gt;&lt;br&gt;Enrich data&amp;nbsp;&lt;/font&gt;&lt;div&gt;&lt;font style=&quot;font-size: 10px;&quot;&gt;tograb postal code&lt;/font&gt;&lt;/div&gt;" style="rounded=1;whiteSpace=wrap;html=1;container=0;" vertex="1" parent="YH9bnQY_dYv-W6tvIdSY-21">
          <mxGeometry x="9.079715327203425" y="135.36654804270464" width="145.27544523525475" height="40.711743772241995" as="geometry" />
        </mxCell>
        <UserObject label="" link="https://radar.com/" id="YH9bnQY_dYv-W6tvIdSY-13">
          <mxCell style="shape=image;verticalLabelPosition=bottom;labelBackgroundColor=default;verticalAlign=top;aspect=fixed;imageAspect=0;image=data:image/png,iVBORw0KGgoAAAANSUhEUgAAAG0AAAAwCAYAAAAb6PR/AAAAAXNSR0IArs4c6QAAAARnQU1BAACxjwv8YQUAAAAJcEhZcwAADsMAAA7DAcdvqGQAABEuSURBVHhexVoLsFbVdV73ApeLXMobeRoh1hhfMVwYbIapsRE1EXCCFZ8VEINRRxE0mqBOUJPUGkChGTSJ0wZUJCK2MSAxWjsGjMlUi/jiJRhGUSC+QKCtXvi7vrX3OnudfV7/hen0k33WXq9v73P265z/2tDQ2FqrEVEDF0X79IYcf411WJwn6A7V/Da6iE+1vPadHvwH+dqYWNL5IU6RtudIrjQ0hPuqsYHVyA/d9zrRYz/0gnzubtA5yvj5XlrRtvcaqYjtGT8b0Io6Mn4uoqPiRcZv81laf4w4X3lTMHwp5MUqrM/mt5fHQuPK+Aq44nB9zix5pY3gWsrrpSLWY8BfBeSHmV7OB8ScNi/Or2rf5iny+Kp4LDQ2j8eiirOEJ5Wa5uFh45XWbig5oI1VId1wGqazgrLYGJoXyxhVnNZfxVfFpXlAXr5FFZfC87iVlh0022Qegt9d4/j8MyhEZONj3UYX8Smgl/HBn3+mKZw1WMr5bHwZH+CumXw24ExM56vu/TlnmqL4TKtL8kUkG8yeK1IhfkjYja4Q3Tg0TpEb76qC3HgYfGASj4oXNl7gfQlMfiYhji2DxubxWZmDTBhX/PMtOdNimQf46gHyD+dMU8T59bSfF2N56uGwsPExj/ZLUcZdwtNQzsPD9v9xpmm+lRY2tgwaV8UHlHHGvkPlUWg+UMSjKOPL4WFxmN9p7pr1551BIaKcH/Gqx/nQQ3y6lYDgh0R+1Xea7V2cH0vO5yd2eN9piG8szodMxXOU0Q/xO00rECxF99A4heg+Fsj1J8QscALbgAipfMMrMDwZxLEWZTwxXxlPHop4FAV8cZo+Z5aH8Z0GexWUDyjiiZHHa/tlefJiY9g8xaHwKCxfzBOjjNf6Ir7/uzPtcF4sbF6cH8eWQWPL+IAqzthfxANUcQHIq/f5lPHl8LA4jO+0EBHHp88g7P2xv0y38Zpv+dQaMtL5eXxxf6Ar2tM/dy3nU2uwZPh4m8OZluSLLi6BWFlXHr8rJjjE7zSu6NmT7LVRnEJ0vpT61QHBUnSP3HiteJHks4zzBT4W8GEBxpfA8KUS8mKLEOdbHouIM5PGFXm+QZacabG0gK0eIO9wtlGFzbeyHti4vH7UywNobF5/YpTxxj7Dg8FJ8WV5eNjac6YpeXuQF286mUigPdxxvuWxqOKslweo4lIg/3DONJunPB5sljNNQxTVut2x8/zxnl8vv7tWnxnWa/Md0nbNV4v1p3kU6XyVgaf4u0x1jir1I7/gOw0yiff9i/IbUYEGCWeia8nojtXpaBb+Gi1efAcNH34c6xLkfNx555cQV3y800N+0F2Qy3fS6b5IvKsHafIT3TlDvsbk5TsZ/OU8gAjnytFtvurOGfIPRjouRrKbXIhcRB50suRMKwL8aQwY0Ic2blhOq1evpXPGXs8W5QGq+Byamjr5moXjaWxsoE8/PUAHDx5w5pw+FEPbjyWQ5WlpOYLm/Pg6Gjz4SNE7d26ia6/7MW3YsE10hyI+RZY3IM4z+Zm0fB5ef/WcaZY82mMZ8+bOoBkzLqEDBw7Q0GHj6e23d3pPfqNpPidbW4+nFb++hzkwxQIwE/GT0SuvbqaNG7fRwoWP0bZt78ogpnnyUNS+Qv2Bp6WlK21Y/ygNGtRXPMC0aT+inz/wK6/Vi7J+KYr6p/0BIh5WG7FXxgWOtM3t0diHIXFxtgbq3r2FJk48U/g6dOhAN8y8lP02J8uHi6s7ic+Hk076PPXv31seli2DB/cT+fWzv0LXT7+I1r/xKP3xD4uoZ88Wk+/6oiXoro38/lg9xELyJsTGgDaejFm+UNK6q2g96Fow6WFyz1L8onNhl7gRx7sLj05Kl8J1OdOwT1qJi9WzfndbWAUDBvaRh6qYOvVc6sEDKbFJvJOpfNQhE11qlcDEOPHEz9Pts7/tOGCU/Cyf2mBMdPFDDyXoLsYFGRhf4Aslq4fYoGtxOwkkfMIHHSU5w7z0ZxgukDXRazKWbpQzUgbYSGuH5h7gvDkzuBbQ3NyZxo8/zcVk8kw+6pDidyUGtspPPtnvtYCOHTvQ5MljaSBPmJiv6xHN1LdvT161fahfv17UrVvXxCdS2oPuSteuzRzXk3N68PnVSWxCaiGxro/K07VrF8np37+X5HfrdoTYXdE2rNSCFcb97KrxGsMFKy0lvS8lsdJ0FDPSlryYmjy0M8881d+ZAx7ozBmXyoDa2FC3tnSJcf9Pl9NRnzuHevf5Gr388iZvdejSpbO8NCANuRigK644l55f8wD950sP0aaNy+mlFxfR6t/9lKZefi5vp92SWMguXZrZPp7WrP45vbn5cc55kH71r3Po2L8cwkG+EUWSV6PevbtL3vNrfiY52g627WnTvkl9+/RMYqdMGUuvvbqE1q59UMr993+Xjj66P1111QR64YUH6NprJ/pY5scqyxT2xQXB8tsjF0gt+fqIpJCXTzzxHHNk0dbWVjt66LhMfL4+kvWRtclTZvvsgHnzHk7iZ86c560Bk6Z8X/IHDflGbe3ajd6axWeftdV40Gvde3xV4puav1JbsOCX3ptGW9uB2o4dH3jNYcrld3DeqFq/I8+qrVr1e2/NwrWzudar9xiJnzP3Ye9xePfdP9fWrdvstVpt5g33ShxxaejAkovIxlNZnpqVXCDb+Z3GIy16TWbul798HLQMsMquv/7inHzVMWNUdxVwx+jUqYOsCJyRM/GCE+F3z70sHN+9eRKdcsqx3poFVv8JJwyjW2ZdzvENNGzoYLr66vO8N40OHRrpyCN7ec1DulijWbMm09ln/5U3ZuHaGcpxk6RfkmgA3pNPPsZrDhIHfl5Zqe8y6JCqo+JXWs6ZxgVSi+jeB+n1QYP6yZtdEbCFYM938aaIbvlQdyXGeed9jdavX0YfffjvqZcdYN26TfT++x/LeTLhm6d7q8OkybPpb8+/mXhme4t7oEfweYdm5s2dLhNLgbPzpZc2cN7tqZwEnNO9e1eaeP4Z3uAwd+5DNOG8m2n79nQ7Y84YxROuo9ybRWMjXgUD4JXngDNMC54FRkV0PBeV3s4y50yzdUj3M4stuOEHF9/pWi4AzpubbnIzzuUVyVBi4KP9qCH9vRawd+9+On/i9/glZR/t2vUhPbL0t3TPPUv4zFhOt9x6H7344no+b/vS1q3bfYbDyJHHyyfKSSelZ/vKJ9fQiJGX0eLFK+nbV93lrQbctd2799GSR56iufMepvvuW06zbllI//TPK3j19KY333zbBzr06NHCz8j97BUDk+KLx1/AZ/W5zPWIew6pM0xlQeGEgu80P8I83EEPZchR/fm1e5h0ogwXX3QWb29Nhs9Jp4eCKSeyDuAD++RTLpEHpfl4kFvf2s6DcgL98AdX0euv/ZIWzL+RRo8+xWc5NDc3yWobMKC3tzgsXfp0wrVixRqeFP/lPR6+f3ff/SC9xRNh1KgT6c47ruR2ltJ9C2+i004b7gMdMKmFL1ppWNGtIybLryvvvLPT8WLxeakrjJOl7r7TpHHv48L1iu80HlnRnXR6jebfe0NqeykC9vCB2NaQB86Ez9c9n+oxNm3aRu++977XHI45ZjB1buqY8PXs9Re0auW99I8LvkOtrflnrAItdOrUifbv/x9n8PjSl45N+CD37NnrPR5swyv+4kWz6Sc/uYmGD/9C5f0n92awffsu+vjjT6SOdtx9B1k7iF3NOUXKylKdS7LSMB8wmOxLSzeqTg8Sr7Snf7WVtWrgxmZMv9jlg9PyadF2uMRYufJ53mIXeM0BnP/2zEI5Y5AzhM9VPHQFZjPOmquv+Qd6+uk/eqsDWti7dx/nOV1x3Bc+Jzbw4YzElpcC+4YM6UdnnZX+vEE735r2Q96W/8VbAvTeLBp1BUpbXOQMy5M+JiW5JCtNRtGPdFLU5kfYlEED+8p5VS8uu2ysfEMFjnxelCwaaNmyZ+jJVc973QF8t912heRMmTLeWx127vyAbr3tflr+2LPyxmiBFnbv3k9btqTPurFjR9Njy+6iCy8YI99eeINMgROnTk23gy109u0P0OOPP0fjxo321gC5J2nRILl3SC6ps4xXmUjVi4ucaZgQMqK+YMhd3Y0sFEh80K5cOV/arxf4peDGG//Oc7lfA1x70J3U9vPA3z70i0UrUr+M4A3tSv6QHTCwr7xFWmBA/7zrtzx4T8nLiAWaOHCgjeYvWOoMHhikCRNOpyVLfpB5S1Xwd6CvOeB8/PijZ2nXzt/k5sh9xTD3iVWF395FstHpXorugp1EHF8k3p9pbgb4gohkNrAUP3T3C0jmG8YD2xJ+5c/DRRfihaTZ80kjru6l031wBNiXPfoMv6k94S0OWO3f4++zJ5/8PR/qu7zVDajuBAcP8rQ1QBPgW778WXrqqT84YwS8me7c+aHXAlateiH1qwzawWCj7Nv3394aIPcVg01qxoqS7zJI2EV3zwQXrCiRMEiVL4hngfGT0U+K6GEVBL2BX0C+I2eKAoOEmX7Ft+6kocPG0cWX3MpvX6vlxi3w+9wQfnV3fI4rXdzfrd7jl453+LBGQX3rW++IDzF3372YXnttS+JHGTNmlPxeiHMP/cBqRJ8gX3llMz300G9SnC/+xxvCB/9lk2bTtdfNkbc4zVu3bjOd/jfX0BtvbE1y3nvvA2rmN+CPPtpDf3/XLyTGtrNu3ZtsX0Q7dnyQ5Gzc+Cdup5GaOqXvadMm2Pl+/QoLRW3uWTjdF4lXyT5I9/c0/ifDA0BCT6NXr+70p7d+LdsdOvzqq1voggtnyU3v35+eaf34o/qcc0bT9OkXJS8J+BYaOzb947IFXsXDx6f2peZfv13/Wlq6iFWBP47u2eMmCFYXfqXB3/Lwfbd7917Pp1yA5XPo17cndeG229ra5LzDhMs7s3Uiop/4s1BTUxN9+ulnktPW9hmvvI7iV6R5Qh/SExr9QB/1+Wefexocg3/y26IaPJRCgS3t9u9fKb9Q3Dv/ER6A1bSDZ6AiG+903OD4cX9Nl1z6DRrR+kU6Y8w19PrrW4QP80Ujna6Ans+nSOuar3zW76718Wl+GZ+DehUZP+9hWBHO0+h1cUkgtjjoLo/b87oi7YeufAAyMGgSxSOeREOyP8mKJS4ealeIbhKUV5Eb76oC7a0iwwe/BsAWwYeFSk5MYlceIC+uDJbf8sSIeFPhrIhueAqfP+xO9ysNnnqArPYsZyCP2+Zbnnr7AdjYPL5D5QLy+BT18sb5LCv+H/1iIC88d/5vBNdisjLkNeTI0hKot1OAjY158lAPN/LrmWRVXDZf+epBEa/lKeuXIs3DK21EsjgVxWeOu2bj8/RgKeLTvGy8tQep0HjlDf0DrL0gnw1ht4l5WHKA2Y1MPLxxvtVtvmkffh6jdDzifJ7KxO/zE5mO4zONVxo0hWS5qiDRUfEi44fBO7T1IsT5AhgtDF8mIY6tQsxzOHwam8cTo4pX8yOemFafpwmXlQZfPjQaiNnKoDmKqNUUTxxbhZgnj0/tVdCYMj5FPXwWhq/dZ5ntR3Y75tWsr/xFyGvAkqpUVHXIQmPL+Czq5UZ+1ZlRL5einv4BZby2X/Ugh4tNFWcagL0ZekA2XnV3DbqrBT7oZfEOWR35YRDK+2Pbc8jnh6UePuiWjXUOwK6lSN9f+C4THsgk3iWpLn6jK3LPROP332lSMyxcBKzE9pSfK9I6DP6hpvyMQh0VLyTfOxI+Cx8L+LBqaGBeguGrRMyTx6eohzfiie83ccNu9SALzjSYqrYXC8SUwfJUxeZBc/L6Y/nq4c+Lz+MFqrgUtl3Pk0mtl0vheRIZwKs670yLG7DJMUkcW4WYJ+aLUQ8/8uuZZPVwAfXyWVRxw4+f8pW3DEVcnNfQQP8L3ldIdenq+00AAAAASUVORK5CYII=;container=0;" vertex="1" parent="YH9bnQY_dYv-W6tvIdSY-21">
            <mxGeometry x="11.80362992536445" y="137.40213523131675" width="39.00860784348099" height="17.18062446310548" as="geometry" />
          </mxCell>
        </UserObject>
        <mxCell id="YH9bnQY_dYv-W6tvIdSY-17" value="&lt;br&gt;Run dbt models" style="rounded=1;whiteSpace=wrap;html=1;container=0;" vertex="1" parent="YH9bnQY_dYv-W6tvIdSY-21">
          <mxGeometry x="9.079715327203425" y="183.202846975089" width="145.27544523525475" height="40.711743772241995" as="geometry" />
        </mxCell>
        <mxCell id="YH9bnQY_dYv-W6tvIdSY-4" value="" style="shape=image;verticalLabelPosition=bottom;labelBackgroundColor=default;verticalAlign=top;aspect=fixed;imageAspect=0;image=https://miro.medium.com/v2/resize:fit:1016/1*7HGfANnloBggMCl0u4RcYA.png;container=0;" vertex="1" parent="YH9bnQY_dYv-W6tvIdSY-21">
          <mxGeometry x="13.428898968933858" y="186.25622775800713" width="44.9874651566417" height="17.18062446310548" as="geometry" />
        </mxCell>
        <mxCell id="YH9bnQY_dYv-W6tvIdSY-58" style="edgeStyle=orthogonalEdgeStyle;rounded=0;orthogonalLoop=1;jettySize=auto;html=1;" edge="1" parent="YH9bnQY_dYv-W6tvIdSY-21" source="YH9bnQY_dYv-W6tvIdSY-23" target="YH9bnQY_dYv-W6tvIdSY-55">
          <mxGeometry relative="1" as="geometry" />
        </mxCell>
        <mxCell id="YH9bnQY_dYv-W6tvIdSY-52" value="" style="group" vertex="1" connectable="0" parent="YH9bnQY_dYv-W6tvIdSY-21">
          <mxGeometry x="232.53240397428954" y="125.19010676156586" width="129.25837563590542" height="61.07" as="geometry" />
        </mxCell>
        <mxCell id="YH9bnQY_dYv-W6tvIdSY-25" value="&lt;font style=&quot;font-size: 10px;&quot;&gt;Injest raw data&lt;br&gt;Allow Python and dbt to transform data&lt;/font&gt;" style="rounded=1;whiteSpace=wrap;html=1;" vertex="1" parent="YH9bnQY_dYv-W6tvIdSY-52">
          <mxGeometry width="108.95658392644106" height="61.067615658362996" as="geometry" />
        </mxCell>
        <mxCell id="YH9bnQY_dYv-W6tvIdSY-26" value="" style="shape=image;verticalLabelPosition=bottom;labelBackgroundColor=default;verticalAlign=top;aspect=fixed;imageAspect=0;image=data:image/svg+xml,PHN2ZyB4bWxucz0iaHR0cDovL3d3dy53My5vcmcvMjAwMC9zdmciIHZpZXdCb3g9IjAgMCA1MTIgNTEyIj48cGF0aCBmaWxsPSIjNTljYWZjIiBkPSJtNDc2LjY3NCAyODAuNzItMTE4Ljg4NyAxNC4wMDYtNjkuNzg3LTQwLjI5MSA2OS43ODctNDAuMjkxIDExOC44ODcgMTQuMDA3Yy42NTUuMDc3IDEuMzA3LjExNSAxLjk1MS4xMTUgOC4yNSAwIDE1LjM3Ny02LjE3NiAxNi4zNjYtMTQuNTcxIDEuMDY2LTkuMDUtNS40MDYtMTcuMjUxLTE0LjQ1Ni0xOC4zMTdsLTc0Ljk0OS04LjgzIDQ2LjY5MS0yNi45NTdjNy44OTItNC41NTcgMTAuNTk2LTE0LjY0OCA2LjAzOS0yMi41NC00LjU1Ni03Ljg5Mi0xNC42NDYtMTAuNTk3LTIyLjUzOS02LjA0bC00Ni42OTIgMjYuOTU3IDI5LjgyNy02OS4zMjNjMy42MDItOC4zNzEtLjI2NC0xOC4wNzYtOC42MzUtMjEuNjc4LTguMzY4LTMuNjAxLTE4LjA3Ni4yNjQtMjEuNjc4IDguNjM1bC00Ny4zMTMgMTA5Ljk2My02OC4zNjMgMzkuNDd2LTgwLjU4NWw3MS41NzItOTUuOTU1YzUuNDQ5LTcuMzA1IDMuOTQ0LTE3LjY0My0zLjM2LTIzLjA5MS03LjMwNS01LjQ0OC0xNy42NDMtMy45NDQtMjMuMDkxIDMuMzYxbC00NS4xMjEgNjAuNDkydi00OC4zNjVjMC05LjExMy03LjM4OC0xNi41LTE2LjUtMTYuNXMtMTYuNSA3LjM4Ny0xNi41IDE2LjV2NDguMzY2bC00NS4xMjItNjAuNDkzYy01LjQ0OS03LjMwNS0xNS43ODgtOC44MDgtMjMuMDkxLTMuMzYxLTcuMzA1IDUuNDQ5LTguODA5IDE1Ljc4Ny0zLjM2MSAyMy4wOTFsNzEuNTc0IDk1Ljk1NnY4Mi4yMjZsLTcxLjIxMS00MS4xMTQtNDcuMzEzLTEwOS45NjFjLTMuNjAyLTguMzctMTMuMzA3LTEyLjIzNi0yMS42NzgtOC42MzUtOC4zNzEgMy42MDItMTIuMjM3IDEzLjMwOC04LjYzNSAyMS42NzhsMjkuODI4IDY5LjMyMy00MS44ODYtMjQuMTgzYy03Ljg5Mi00LjU1NS0xNy45ODMtMS44NTItMjIuNTQgNi4wNC00LjU1NiA3Ljg5Mi0xLjg1MyAxNy45ODMgNi4wNCAyMi41NGw0MS44ODYgMjQuMTgzLTc0Ljk1IDguODNjLTkuMDUgMS4wNjYtMTUuNTIyIDkuMjY3LTE0LjQ1NiAxOC4zMTcuOTg5IDguMzk1IDguMTE2IDE0LjU3MiAxNi4zNjYgMTQuNTcxLjY0NCAwIDEuMjk2LS4wMzggMS45NTEtLjExNWwxMTguODg4LTE0LjAwNyA2OS43ODcgNDAuMjktNjkuNzg3IDQwLjI5Mi0xMTguODg3LTE0LjAwNmMtOS4wNTMtMS4wNjUtMTcuMjUxIDUuNDA1LTE4LjMxNyAxNC40NTYtMS4wNjYgOS4wNSA1LjQwNiAxNy4yNTEgMTQuNDU2IDE4LjMxN2w3NC45NDkgOC44My00MS44ODUgMjQuMTgyYy03Ljg5MiA0LjU1Ni0xMC41OTYgMTQuNjQ3LTYuMDQgMjIuNTM5IDMuMDU2IDUuMjk0IDguNjAyIDguMjUzIDE0LjMwNSA4LjI1MyAyLjc5OSAwIDUuNjM2LS43MTQgOC4yMzQtMi4yMTRsNDEuODg3LTI0LjE4My0yOS44MjkgNjkuMzI0Yy0zLjYwMiA4LjM3MS4yNjUgMTguMDc2IDguNjM1IDIxLjY3OCAyLjEyNi45MTUgNC4zMzcgMS4zNDggNi41MTQgMS4zNDggNi4zOTMgMCAxMi40NzgtMy43MzcgMTUuMTY1LTkuOTgybDQ3LjMxNC0xMDkuOTYzIDcxLjIxLTQxLjExM3Y4MC41ODNsLTcxLjU3NCA5NS45NTZjLTUuNDQ4IDcuMzA1LTMuOTQ0IDE3LjY0MyAzLjM2MSAyMy4wOTEgMi45NjEgMi4yMSA2LjQyMSAzLjI3NSA5Ljg1MyAzLjI3NSA1LjAzMSAwIDkuOTk5LTIuMjkzIDEzLjIzOS02LjYzNmw0NS4xMjItNjAuNDkzdjUzLjkxNWMwIDkuMTEyIDcuMzg3IDE2LjUgMTYuNSAxNi41czE2LjUtNy4zODggMTYuNS0xNi41di01My45MTRsNDUuMTIxIDYwLjQ5MmM1LjQ0OCA3LjMwNiAxNS43ODggOC44MDkgMjMuMDkxIDMuMzYgNy4zMDUtNS40NDggOC44MS0xNS43ODYgMy4zNi0yMy4wOTFsLTcxLjU3Mi05NS45NTV2LTc4Ljk0MWw2OC4zNjMgMzkuNDY5IDQ3LjMxNCAxMDkuOTYzYzIuNjg3IDYuMjQ1IDguNzcxIDkuOTgyIDE1LjE2NCA5Ljk4MiAyLjE3NiAwIDQuMzg5LS40MzMgNi41MTQtMS4zNDggOC4zNzEtMy42MDIgMTIuMjM2LTEzLjMwNyA4LjYzNS0yMS42NzhsLTI5LjgyOC02OS4zMjQgNDYuNjkyIDI2Ljk1OGMyLjU5OSAxLjUwMSA1LjQzNiAyLjIxNCA4LjIzNCAyLjIxNCA1LjcwMiAwIDExLjI0OS0yLjk2IDE0LjMwNS04LjI1MyA0LjU1Ny03Ljg5MiAxLjg1My0xNy45ODMtNi4wMzktMjIuNTM5bC00Ni42OS0yNi45NTcgNzQuOTQ4LTguODNjOS4wNS0xLjA2NiAxNS41MjItOS4yNjggMTQuNDU2LTE4LjMxNy0xLjA2OC05LjA0Ny05LjI2Mi0xNS41Mi0xOC4zMTktMTQuNDU0eiIvPjwvc3ZnPg==;" vertex="1" parent="YH9bnQY_dYv-W6tvIdSY-52">
          <mxGeometry x="2.4204647676161835" y="4.07338078291815" width="17.18062446310548" height="17.18062446310548" as="geometry" />
        </mxCell>
        <mxCell id="YH9bnQY_dYv-W6tvIdSY-57" value="" style="group" vertex="1" connectable="0" parent="YH9bnQY_dYv-W6tvIdSY-21">
          <mxGeometry x="381.5667166416792" y="31" width="126.83658170914543" height="60" as="geometry" />
        </mxCell>
        <mxCell id="YH9bnQY_dYv-W6tvIdSY-55" value="&lt;div style=&quot;&quot;&gt;&lt;span style=&quot;background-color: initial;&quot;&gt;&lt;div style=&quot;text-align: center;&quot;&gt;&lt;span style=&quot;font-size: 8px; background-color: initial;&quot;&gt;&lt;br&gt;Data&amp;nbsp;&lt;/span&gt;&lt;span style=&quot;background-color: initial; font-size: 8px;&quot;&gt;streamed from Kafka ready&lt;/span&gt;&lt;/div&gt;&lt;/span&gt;&lt;/div&gt;&lt;font style=&quot;font-size: 8px;&quot;&gt;&lt;div style=&quot;text-align: center;&quot;&gt;&lt;span style=&quot;background-color: initial;&quot;&gt;for Assistant to query&lt;/span&gt;&lt;/div&gt;&lt;/font&gt;" style="rounded=1;whiteSpace=wrap;html=1;align=right;" vertex="1" parent="YH9bnQY_dYv-W6tvIdSY-57">
          <mxGeometry width="126.83658170914543" height="60" as="geometry" />
        </mxCell>
        <mxCell id="YH9bnQY_dYv-W6tvIdSY-56" value="" style="shape=image;verticalLabelPosition=bottom;labelBackgroundColor=default;verticalAlign=top;aspect=fixed;imageAspect=0;image=data:image/png,iVBORw0KGgoAAAANSUhEUgAAAcsAAACFCAYAAAA0J9PvAAAAAXNSR0IArs4c6QAAAARnQU1BAACxjwv8YQUAAAAJcEhZcwAADsMAAA7DAcdvqGQAAFqJSURBVHhe7d0HoF1FtT7wSU8IEBCU3rugKMXus2EDeWIXe8XOE1BUFCn+VcBnx67vIRZAARUVC9iAB2JDFBEEUUBFqrSE9POf3zp3hUO89ya5nNybMt/Nzt5n79kza2bWzDdr2h7XqSgNDQ0NDQ0NQ2L8wLmhoaGhoaFhCDSybGhoaGhoWAIaWTY0NDQ0NCwBjSwbGhoaGhqWgEaWDQ0NDQ0NS0Ajy4aGhoaGhiWgkWVDQ0NDQ8MS0MiyoaGhoaFhCWhk2dDQ0NDQsAQ0smxoaGhoaFgCGlk2NDQ0NDQsAas1WS5YsCDOtsedN29enCHvO8+fP//frhsaGhoaVi+s1mQ5bty4IEmYOHFinGfPnh2k6Rg/fnxZuHBhmTVrVridMGFCuGloaGhoWL2w2luWkyZNCkKcM2dOEOKUKVOCJG+//fawJCdPnlzWWGONeHbnnXcOvNnQ0NDQsDphtf5EV2/U05pEnIiRpek3Qk0L09nR0NDQ0LB6YbW3LJMkESQkMbI03ffbs3jevvzZ0NDQsFpitbcskWCer7322nLGGWeUc845p6y99trlBS94QXnUox61aDwzybOhoaGhYfXCak2WLMjOwk5M3Dn7R2eXD3zgA+Xyyy8va665Zrn++uvLxhttVI488sjytH33LePHjS8TJrYJPg0NDQ2rI1YZsuxEl2r3enzOWnWD5bhwQT11LcIce9QFa+brVVddVU477bTyjW9+o9x2621hYeYhabbbbrtyxBFHlN12261Mmjwp/PMMPOdXnhsaGhoaVk2sGmRZYzBv3twyaWKXzDom6SCvGjXRM6u1u+xDdytyW1j+8pe/ljPPPLN873vfK1deeUV1s6DMnTu3TJ06NZ6bAXtrJc/p06eXPfbYoxx99NFlk002KZOmTI7w5i/ozpRFug7XDQ0NDQ2rJladbtgaCyQZl5Xsxk/ojjN6MPuu2UGWxh5vvPHGctZZZ4U1efHFF1eLsGtB1qQIt/PmzY/fa621ViwfsZTEe/vss095/zHHxFKTcQPv5MxZ1zkRqKGhoaFh1cMq1Q3Lgpw0qVp4lbQWVssPul2qul3nl1/96tflhBNOKD86++xy8y23lPved/1yVyVSmFDJbn71A+lNrMQ6Z+6ccp/73Kf861+3BqFOqOR7wGsOKIe+7W1l5syZQaCI1KxZ1mhDQ0NDw6qLVceyXDiwBKSS3cJKeow8JKl79oYbbizf+ta3giivuebqSoLrxSt33HFHdJ9OmjQxumHt5jNx4oTqTyXPSpjz58+rRNkd/5xbyXPtGTPKkUcdVZ7+9KfH8xz7dN2syoaGhoZVF6sQWS5cRJZmuLq+9tpryjnnnFu++c1vlgsvvDCswWnTpoWVySKcNm2NILu59Xr8hPEDluLceBdpzp7NzbSwWGMCT+XDrbbeurzrXe+KJSW6YXXLNsJsaGhoWLUx5mQp+JyhimySeIbD4iIHSbnndr3WBXvxxb8rH/nIR8rvf//7ctttt8U7LEhEurBeC8M9pGlN5b/+dUsQ49y58xZZmmTqyoYE6xGnceXhD394TPjZfPPNQ16EmfI3NDQ0NKx6GLP1Dqy1nCDTSzRhwfUgyRQpJUlymwe4HyRY3c2fN7f6MSHGEa+//p/R1doNq7u0ZF5Yid1N0b2/zz57l0c/+tED3bGTy9RqXWJFhMkCDT8rcU6bNrXerURcf59//vmxJpNMYAwzZWloaGhoWPUwZmSpSxTBBNHVg4XnAISURy9BIifE92/E6S9Itt5zu97bcsstyl57PTHcIkLWI/9YgbpbZ8xYO7pTraHcfvvtKnlOjPHN2bpkq19mzT796fuVnXe+f302PjZRFyaSdVh28r73vS/8N3M25WloaGhoWPUwZmSZQDLICYE5kJ/faW32HklU+SzfZzVW07LeG18mVosQPH/a0/Ypu+++WxDszJmzyvTpa5Qttti8PPe5zy2nnnpaedGLXlTue9/7lT/96YpYY4lMc73k2mvPKE/ca6/yqle+qmy44YY1zK4lmoRN1q9//evlK1/5SrnpppviXkNDQ0PDqokxI0vEBIgP4fVai7C4peZ3Hr1AYLFjTz0P8GcAcW6zzTbliU98UhAsy3Lvvfcp7373EeWtb31r2agSIBjP/Oc//xnXvLZGszuOuVbZcKONypOe/OTy/OfvH1vgIVTh88/MWd+5/PznP1/OPffceL+hoaGhYdXEmE3wEWxah4jTtQMB2T0HuEnxnBErUrVNnQOp+W2pyDXXXFNmVetxhx12iBmrtrhbsGBhufnmm8pXv3pS2X677cojHvnI6DKdOGlSmR/LRCaWSy/9Q3njG99Yrr32bwOzYbt+IsTf/+53ce/OmTPLW97ylvKTn/wkxjxtSsCSXHfddWNMVJgf//jHy7bbbhuyNjQ0NDSsWlhhZsM6LrnkkvKjH/2o/PUvf4lZqXfdNavMrOSJQC3vQGKsu1l33VWf3RXWXZBoJVljkXbqOeydh5VXvPwV0R3LuoRZs2ZWAp5eCbS7DR6/JlcSrKGXH539o3L44YfHGCUZEDI84IEPKCefdHKQJiyo5LvffvuVS//4xzJ50uQyd97ckGetanG+7e1vL899znPKtAGSb2hoaGhYtTCmY5YIjzXJSjvppJPKq1/96nL88ceXb3/72+WHP/hBdG9e9JvflMsvu6z8pRLoNVdfU2644YYye9ZdZe7sOWX6tGk1AtUirX+2qZs8dUr581VXlQlmslbiq3Zp/K0xfXptFtR/E2p065k7Z2R7SbUsb7n1X7GcZPKUyWU+i7SzsOy8yy5dwq1WpPcQ7+e/8IWy4/Y7VKv2rjKh/t58s83Ke45+T3nec54by04qc+PfnqPbELjHraU8GhoaGhpWHIwZWbIIWYPOPod13nnnBRHGGGQlItbiPc/jy+TJk8rCBd0uW92j86r1CVOnTQ2iY+mZtQrchNE8DPOY+fqPf/wjSHvaGtPKHfVd74Gu1bvHQsfF57nWX3/9cuCBB5atttyq7LnHHuW9/++95RnPeEY3HjZCiKO7nCRQw8/9ahsaGhoaVl6MGVkiIGOGrLtbb701LEe/gxzNdq2H9ZAsOufuDNjuZCBdsZZ5uJ5arcQ51crkjy5T9xysVWeW4VDQvXvzzTcvWsaC9Fx7b+edd17kFwjfTNnHPvax5ZhjjilHv+c9sT5TV3GG212+Mq4smD+vynRXvSeeY2q8NzQ0NDT0AWNqWQKS83WPf/3rX0FGfiOu7tFdIhJ/9dwlxPGx4UBsVVetttxpx6HLE5EC4kOYrM2hwJI1E5ZbZ/7zwwSjjTfeONwItxe6dO3g4zuX/CeHCUausSPCRJ5TqoyubVjQ0NDQ0LByY8zNHgT5t7/9rdxyyy1BVhN9k7LiHhw18GO99dYrm2++RSwDQWY2E0Bauz5o19ir9alPfWp5yEMe0rXy6jv8zgk6g0H3K8JEsNxaHoL0Nt1007hGtF2LtrtzDzJkNZKTZZsW79XXXB0bHHz84x+L8VXk3+0i7oQ/DQ0NDQ0rN8ZuNmwNtVP/EM9HP/rR8qlPfSqIJ/ouByTqcmSXKBHWYx7zmPKa17wmPsI8uVqDU6dNW9SFOn5i93uVCA5B8jctzsWtQxDtyy+/vJxxxhnl73//exyWgSDPRz7ykeW///u/w597kG2VixWJOFmj3e3wOrFR+7HHHlNuu+32SrSblD322LM8tJL2A3fdtWyx5ZYxptrQ0NDQsPJiTNdZgnHDQw89tHz/+9/v3qv/WGwmy+hyRXTRxVlJ0xrJRz/6UeX97z+mO/u0OrbExDXi1e2ZZInQgnyHgfC4t7bS0pFbbr653FatQt+xfMADHhBueonWFbnSEl1Q5fJdzOOOOy5m8AozxzzJvuOOO5VHPOIR5VFV5p3uf/8yY8aMcMPP9Jdb1733l0b2hoaGhobRw5hvSmAHnZe85CXld7/7XdxDNpUigyARku9IGrs0TnnHHbeXddZZN7arO+SQQ4LozIo1UzWIpodg0v9+AlHOmT07ZLHTz7jxE8qlf7ikvPGNbyrXXfePIG4WrefioavWvfXve9+y50P2LC984QvLox/1aD7Fh6ZZqWH9VnI32xfh2yxhgjRoZNnQ0NCwwmDMa2RWnTFL5OZAEiyraZVwWJ02OHfP+OKUKVPLrbf+q3zta6dE16elJDF7tpJNEiU/vO/cb5hZq/sVIeqyRXa/+MUvy1VXXRUTeVjEa6wxLUjSLFkk72slM++8s5z1wx+Wl774JeVZz3pmOf3008tN1ZI1cWlijV8VNt5B7fwXp4aGhoaGFQcTjqwYuB51sPz+/Oc/lxNOOCG6ThHchEp6LMbdd9+9bLfdtuWyyy4r6667TiWf2UE8Mfu1ktClf7y0rLfe+mXrbbaJd9OK7D333bKs8rH8kDfrcebMO8s555wTXbgsSNvrWQfaJfgJYR07grjrwQq2rvOnP/1pueD8C+I9VqZN2z2zJjPWakZXdLMsGxoaGlYUjBlZIhBkhjh+8IMfRJere+xBltVTnvLk8spXvqpceeWVse9rpb8gHss6bDxgv1bb4m219VZl8y22wI7LlSiBn9FdWuUMWaavWXbcYYey2267lfvd735x78Ybb4jzxInIv/se4tMIMNapIYAgre+88MKflwsu+Hn4t8EGG8Res6SWCo0sGxoaGlYcjBlZJpl96UtfKpdeemmXiCpBsKymTJlcnvSkJ5e9nvCE2Hbul7/8VXwGyweZdbFOqsTqs1x3zZ5dfv/735eH7PmQstbaa8f7y4Mke6HrNUKo/7EgdRdvtNFG8Skws3V33nmXkPGaa64Ny3PNNdcqc+bMLnOrRSpeSHT27O53O1nK3P3udxfHZ8B23XXXASt5+cejoaGhoWHpMebmC8sRyZlZagzPuJ+1ieutv14QzC4P2CU2R99k002q63Hl9jtuj3E9SzaMaf7xsj+Wtx56aOziw6JbZM7Vsy7R6ALtI5BZTsDRbTp//rzYQ3by5Cmx9vPp++0Xy2BOO+20sv/+L1g07mptqLFO3cnTp08PMpw16676zkZx7+qrrwm/jOEOt+tQQ8OqBOVT43Kwo99l995gKDlXJBkbli+W/2zYoXyvwSKPBz7wAZUg5lZCsSayu+Rjsy02j+UYuje7hDS/fPfMM8v73ve+WAeJbLjzmS5jfdOmTivve+97y1Oe8pSudVmPhQsq+VYLrRd3k9C4Mn/e3GrlVdLtLKxEvSCsVTJJDkRmDSVSzL1ohcdvFq3fZM3wda16hujB2KVZvMZjT/ziieW0008Pf8XDWKez34gXQSJTM3zf9c53lulrrRVW61hjcbUwwcpXYXJd62DwjnSATK/In2nTorGgERRLbljnPWnqOn/3+j1UONzZxOLaa6+N7mtLfYQDQ70jTPJlvLxv/NimFuTjZ67TzbzJuPQLGT/nq6++OhpGW2+99SLZBwNZyJRLksBkMrqVspKTLtItfvdT7gc/+MEDV4MjZVo83d0nCxnJk/MKDEUYglCObXN53XXXRT66p1xoCMsPZdx6ahuEyN/73ve+sTczZBx7z8LrzkDvfnpvKD2QTsLw3OG9TEPnfI++ky13FyOjPDME5H3xos/k2nLLLUNG8ukh6s6Wv3uyomvxh94wlhb8kDbKDp2xlzYdsH81v8Q507fXf+H3C/wlg3AYOOSwJehwYYQs9eyzhl0DZ2GsfrCmPYyCKqe8cj/1ZCRIuXphuG7zzTePc78wZmRpw/HLL/9T+c///M+acAr6tEjQO+68o+z6oAeVz372s6GAFATMPj3xxBPj+Otf/xprFlltO+64Y3nta19b9nnq3lHIQOLLiFSe+l+IMb4SsgtEqBD87GfnxJ60KlzrNzfddLN4F3HrDu6SVvWnZuKcWniy+5dVmwVmQC8rhCfjFpQ//elPMRb7vUrwl11+eWQkf+FupVCZdBVbeMZnDzrooG7FuQJYlhQwK2iy28Dh2c9+dig54hsMCi35xU9hVjFaG2s8FymwvHfaaafYZcm1tEgld860cURBuztx/w3f+973ysEHHxwf8n75y18eMnI/VIHLeICwPvjBD5avfvWr8Z1S8XKPGzIkoads/UCGTz7p4rNwKmGjIEhhOGRe0N35VXfNvva5OHlBD6U7N66dh0qDkUBYS4tMX/lANjJLRzqBDH/xi1+Uiy66qFx88cUx9GIWvF25EA7iSbJXrpV3ZOV9hGmI4mEPe1jZc889y/3vf/9IT5BHwpGmzsLmx1B5x7/MB25pGJ/c8xtJnn/++eXHP/5xNA7FH0HS+XXWWSdIXDoLz/0kU+HtsssuodvWaD/hCU+IOGVeOJPZsaz5k3mK6IXz4Q9/OFYDMCjsT52yixvZ8rejX2C02F6UHOpsYdjQhTxDhZN5lPHm7oc//GF5z3veE8Nq4pX5lDruvKzgL3kAB0gnDQl7eNObfmHsLMuKU04+ubzjHe+IDO6mdyW3+vfIRz2qfPrTn46ElAhZ6FTA//u//1s+8YlPRGGyR+sb3vCG8oTHPz7IjRc+p2WrOX7ytLuWEWnWnzWj51WL79xzzytf/OIXo9Bau2l/15122rEceujbojBGxlLuGnZmYihEPdxTUJAmgo8lK6EMC6O1f8YZ346ChtC7XbDi0CVYbsjBv26yI93JtXKeVN7+9neU/fffP8KJT4mNMaS7guEs7a+44oqwMvbYY4/y//7f/xtw9e9IxXWoeMz4Ven99re/jQpSviHOvfbaK0jOeK+0yILufRXtcNYWv7/1rW8FyX3kIx8pr3/96xcVuqGQ+Sgs7yuwRx99dOjQxz72sejFQDpkSOtkWSu1JSGLmvBf9apXRUWr4tMCHgzc5zspi3Sitza7UBEoP5lW0s7z0NU+Ye+99x64Gh4pq7ClnzOZpbu80vilQ8qOMvakJz0p9EBDSuMEUaaF7306gIRM7jMj3qYlGqFbbLFFedzjHhcfbPexdf6n7mT4w+Ub/zN90j2oW2wson5BkPxFRE9+8pODrDXOESVZvSNMcSGnfET8Zsb7Hi+/HvjAB0Z5RixIVlkg43DksiQoO/x41zvfVT704Q9Fefz6178eli2It3DSwFhSmVgWSDcguzpAOH/4wx8W3RsKeu306Elr8iHYN73pTdEL+KxnPWuRv8BPejASZJ6Iu3yRV9JH2vcNNRLLFwsHP2becUfnqCOO7Nx/xx07u9x/5862W2/d2WSjjTubbrJJ57DDDuvUAtOpke9URawvdOFeTYhOreg6tRB3LrzwwnAz8847F/m7oLpxXjh/QWfWnTPj95xZd8W9v11zbeewt729s90223Q2vN8GnR23276z2SabdjbecMPOeuuu23nNqw/oXHn5nzrz59ZwZs8e8Gd+9WN+XPPvztvvqNce1GPBws7sWbMiLl/64hc7T3nSk2s8tomDn9tstVVn1wc8sLP5ppt1dtphx7i//bbbdrbaYsvOlptvHuftttm289A99+yc+7NzIoyQfwWBtAXpXivoTlXETi38cW8wcOeoBWDgTtcP92prr3Pbbbd1akOi89jHPjb82m677eI3yFdugPvhwP9TTjmlUwtI56Mf/WinFrJF94cD//lNpqOOOqpTK55OtRg6r3zlKzu33HJLPE8ZMu79Bn9rRdx5znOe03nGM57RqWQw8OTfwW2vHK7FsTY8OtVqiffdq42ySL8lxX95Qbi9YbuWzuL20pe+tFMrwE61njv/9V//1fnd734XZZq80qFXbmd5WclmUbz5UwmpU4mic+6553Ze8YpXdGoF2NmmluFKFBF3SD+8N5z+pGzOkdf1fOWVV3Zqwy3StJJ35/jjj+/URt495HBO2cgN/Ej5nT3/+9//3jn11FPDn1phd/bdd99OtVTDDT/y3WVB73vS4cADD+ysv/76nUo+nWosdGqjIp5xp4wtD2Saif/uu+/eqZbborIyFDwnd6ah36effnpngw026Hzwgx9c5F+10OPaMRIM9l7qVz8xZiaMZRdabvs+bd8YN9pqq63K9ttvH11SO9RzWnNaCFXORS1IrRPflGQZsga07KL7tboxSai2McJ/FqVWirHF22uL7Ctf/nKpFVT53xP+t7bOJpfpa6xR5tQWSH0xdgXaaKONy+mnn1ZOqtYua5MbXcV26QlU/6fVd6avuWaMY5pQxHL8+c9/XuX5r3LccR8olbxrq2ZOhLvWWmtHK1D3ky6cqijR4nTOlp/41EyN7hp7ypKlEmYVvmtNjDXIVxUx0lxcnN2TH4Md8ixbs3mvt9UpnmYMn3nmmbEfsHR48YtfXL7whS+ENcF/+cyfJSHTUBjSm5zDIeUjj6VJ8o7esG5ZPl+u+rF4/PqNTE8Qtt+96bM4POt9Lo1SNnqUaSYt5A9kGP06loR0k3L6TTbDECyH7373u6USXPna175WPvShD8U4V5bptLJcpz+sZGnjPl1I3fOOLs4PVz++8pWvxNignb8qAS/a/YtlAr1ptjjUF8LlHswnUC+cffbZ0a2vm9j+08YfyUIGspHDb7rmfenscO25M/0yvLDPPvtELxOr/49//GOpjbGwWFmg3C0rhC0MdYUwjMPpuj7ggANigxOTCcWLPIY9nPuNTLPsxXAmV6bjYPC8N3/pqWv3patrcZG3mf/OIznEn390L+sQ4fQTY0aWiCG+DXnccdGVcNJJJ5djjzkmFPYRj3xkJEAWFokgs2QQRUA+xjo8o7yZ8N1JQtV9daN71GCysa23vvUt5d3vfnd0CU6vJG1JR22LRBh2BdK9gch0x9ZWYTnllK9FwTNByEQh0JUasM1dLYs+wfWrX/2qvPnNB0W366z6/n3vu35k/qxZMyPz+G9HH35pCOh6NKnIMxWAg9w2Jbjf/TYI700qqtVhXI8lpCn5FFDxoITOw1VE4pIHZEHJ3/KOH/JMRac7XVeaLlEVYD6H2lyM82Dgjlz8Af6nDgwF73hOJnlPT+gUOXSV6Sb8v//7v0Uk1u+CluBv+i+uCG8o9FY0kDJlHmQFlucEd/06hoMwM01BHhjHMxscQai4dZO/973vje5u8eA+y7XfGcfeuKYeiFf667fK1hIxXcNIGKldcMEFMWRjwhb3/BlO7mxYmVxkMxRj1uoSfiA3ZMefzKNsYKXcqWfcOOSfgxu/+S0MemQOwuc+97noxtXAN4ZmSGJZITxyZAORbK7f/va3l//4j/+I9NZQF37K5+gnxCvzhN+upc9w4ZA5n5MLvO89Z/FwcJNnz5b1kPbZWMw0Avf7ieVOliy8qPh6EnVerejmz2MpSsBuAlHYB+/24JgVqgLNhACRdsigbJ04MgNNvEGO1RoP/6rjcvHFv43Zs4fVAnD++ReExSfDUqkn1YzsZnz3+5XOwtP6+5//+Z8Yf2CpRqFBwgPb0olGRKX+Z7xNCy9a+OGXsY9ZJI7CQkbjmlrWKgyfEZtY3XHvWWRlPRtzCPfSKeK63LNliUhFo4TSKX9nngyFzLde9wpNNg7yvjRnZX7gAx+IsanPfOYzMbFCWIEBd4OBf5BEw096MZxs+Q63Dm4Rrp4MY57kUbkZV0u9cvQWaHBvpBC3lJGfvRXgUEh5hc99/h4Ki9JvlCA+ZFO2EBDr0aQlFuSxxx4bE5GMG4kv2Rzi3BuXlJlfrj3rjUfv74y7MUS6gyiMXSs/i6cluTK/evON3px00knliCOOCGv1+OOPj4ZsWk2weDq7pr/C6L3vdzbaet9x9kyZNyZuwg/i1KMinZLUpAtoQA+FXn8zTn4b76WzwF8NBs/TbSLD6Q1vWSFv5AM/IPMz9XkwpFtupB253RP3zOeU1fVwfg0HfuS7KefywMikWwZ0l2vURKsRurNacLaLO/XUr5e3HXpobYV2P4yMJLqJ351GnFi8gDir4LIll4UIIfPXfbNRFdgXvvBF0b3GqtPaXXfd7sxaG6HLOBU0uRAsReWP+86Uzvcpf/2bX9cwJnW/TSmTq/8yOw8TFOw0pKBaAiIsXY1+sy4f//gnhGV74IFviplyJijMqm48j03XFZgqxbbbbhP+J4azqkYLmfaUr1cZxdvvoY7B4H6+z99ed7Y11JAwWcBOTtKwa9UP7ldC3mdrdWmRYffKQ+/kje48sx9ZQnok0p2dlzINxL0fyLRdGv9SjnTrnGWk931uRht6ZMiifAnf7GLE8KAHPSh6DcwKRUDcZBr2wu/Mh8Hkz+eDPQM6gIwe//jHR1ceLHJbk0beel86uZ9d13qPkIvv36orzJzsJcEMF4YL3/3ed3rPwiaf33qVTORCyAhTlz8dIE/mp/CXFr35bpKXCTO6j/WO9JKSszBSzkyPkSDjlWm5NOBO+cnrPKf8zinP0vo5GHr9Ttwb/4bCyFJuGdC1IGum1QpQRupu+9hHP1a+dca3ovvt9ttuD3eRCcMoJnhGASkW99k6855r44fdAvDByATKgZDWu899ogJkNa619loxbfl+G2wQ79pRh79dxbor/HFYC3TMMceWK6+8IvwJtz0KjbR1me739P1qYdu+ElwnlrrorjX+yjr9xCeOr62/+5Y111orlDan4ZNt6tQpUWD4ayq8rsG0KOfOM5a6ekBaGLeUBmYS/vOf/xxoTIxOGsh7emnmom4tFakxIPniqA7CTf4eaWWzqkGZQFCsJA1EPTEI0sxeBLTZZptFutFxjZ/RTDf5tKCWQ3VFt53ezT8WIP0in2vLjnIJU+R1HyFsjXjxV7foPdLNa5asLl/jrPQu9WpZG34JjZF999035n+Y3W0MMyHNhaGB4Fo8pUXDyLDcNXjS5ElBSCwtrU6KesONN1QF6pRTTjk5ukB8E9J4Y9WaYTOT0vVWohSAIlz15z8H8VpGcs01V9fKdo1FrTbeIcn73GfdUCxbzd3nPuuFNTl50uSqpN2CQqlYkVGo629dR5Y7kNkkHYpfGXEg5O6WfMYzFbanPOWpZZ11142JSkcecWT54hdPKI9/wl4Rx4nVXxOCTCi5/fbbFlUewuWP3yzU8HXA//gSyWoCBVgXqO46Wxda+J09B6MB4ZBBmMhS17AJRyp/oHMqMu5Spn5XrCsj6K1000BEQCw1aah86y2g4+lG48ez0UISc5DQwJwD5Z0lfNhhh0XPkU/8KXfqk9687Suqn2TIdLDG2FiuXq3Xve51YZGD5/cmfHnwzne+M5Z0IGRzKSLuVW/T76zj6HPDyLD8m3u1XvnLX/5aPvyhDweJmFwj8yi0WahaWaywW2+9beCFoeEdGU7xZH4qwT+uu6584xunB0F6xrqz7ypFmTSwS48uX5MMYh1lVZhQpuoWjJ3aro4iuW/7OgUKuf70pz+L/WtnVrIDMrCUu+GPL5MraVozZO3hB447rjznuc8p68xYR0m9R8vWejFxtKayu0csQhwXY56+nkLW+krIxmJdXSBtpIUWt9b+b37zm0hb+TxaEBY59FiobOSx8TZr51w7yES3gNvVHdJDuuixOeuss8q5555bnv/85y9ap8zqzHTK9BstCEt50kB1Vq7p1je+8Y3oNbDG0yQh8mU3ceZtv5Dpk6DjDus2zcswMckM4ZRvpBAOUtxmm23K+9///mh4arDoGQN+d+ua0c+HVQ3LnSxtE8U6O7UqqT1QQzGrVbXWWmtGy0pF9Yc/XBJdo12FHb4ikuGZ6dxTdmMkxgchxwNZdXxCiGajHXzwQTE2ZlDcnrMKitYmUmVR2h3ETj4mH/F3k002DsJ0/cUTTojZd9k67lau4we6jcdH15PxiK1qS5Xym+xTH9DkcE+Z85ud4m8MVIvW75123HHReIt4RRqsRnWxONMDFroF58YukdZodcOCNFehyA/jVwe9+aCY+v/xj388ZlA3cvx3SBN6zVqTTroZn/e850WXrGcarvJQunKXjdzRQtYPmXdmobJ+lXGzn3PrPGU6ymzVw35CuGRwTjIWjnBf+tKXxlCN2bjkShlHgnyX3zaqMPZuVjcDJCcNCV8eOHPXMDIsP7KsijJ39pzo7tCCopTdQjM5yISVxcLabLNNywEHvKZst/32S1QayscPfmVLTYFcqxbQF734RWGl3X77HbEJ+5y5c2Ic8BnPfEYlujPLa1/7umqxTYguWZbjvPnzyhrTfe5rZijRm9/85vLil7y4rLn2WlWhJsbXQMzQnT1ndpld/TIe8Ktf/XpRAXA2xokwzcadMnVKlyA9Y07W59X+jN+eI0sTnFilCN1sXM633W7bcBPKnJVJfXd1gopUo0d+ajTpwluWCQ/3Bpmf0S1fw9Qy3/c/943Ziyb72KJN3kBWNN5Z3aHMyLOf/OQnMf6msaihIR2VSemYs0QRkTQcrYo66xFLzOgSWEdpT1Nrs5/2tKeFnPQNUgf6idQZJCn+4p4NQI1744y2kLRtXTbWRoIke3GQJ6zWpz/96TGR6Je//GWE7X7GbzQbLKsa7j1Z1npjQc0wx0LjcPX3nJl3lZ/+6Cdln733Lr+48MIgRZna/Xizr4t01zs95CEPLce8/5iY0bagkpeMHW4mqAxXsfZWpHFd7yuoT91n7+7+rVVxHrjrruVjx3+8HHXUUWXd9e4TW8jdVonyxptvGqjsugQ1cfKkmIBj8/bn256qKppxjrVmrF3mzJsbZMjynFvle3O1Ti+6+LdBngs6C8vUSnomEgQ5UkYRq2fv2N+1253aKTPvvCO6RXQHq0R06dpnkVX60Ic+NNzErMuq9Ih8dYK8UOnK17RKspIdDQiP3pEhdLP+dk1vdNtr7FnSonJV0WTlu7pDOlmbrEHBWnrBC14QFb60c/RC+srf0QT5kARd0h3L2pK/1jv6TUZuyLw8Gj/iy39E5uzIeose2e5QnWh8UVf2SEmMn0n24qd+MXfD0h2zZE0qTMKE5RHX1QV9sSztksNiisqkFqBvnH56OfLII2JPRwSgS3RKzdR58wYqo2qFPfnJT4r1WA97xMMjk2Uo5fF8JFh7xoywBuyeYd2criHjA5MHCi4lMXPPZB3qYu0kUqNEm1ei1BVqUo9F6o957GNDFs+8x0oVNwPzJn+oJFJO5+FlZoWWmD7+mMc8NiqW9Sp5K0wKckzuIVD1o7sDUW2117RcXZCFV1ojJHogPbNwL28IX1jCzEpFBapX4b//+7+jsrPpuuEEXYt6BUZLthUZ0s0kKD0mLCWTV0bLclwSyObI/NSlbmmFpSzWVcpD5TnLburgaCDlkl6MBD0XLN7h65ChkSTLXw0A8WU4IEzDGxp7vq6T8VTXNowMfSFLGaSFY2KN3Xg+9elPx/cZTa6RSYiBtVezNDLXImLTto31IYZofVXCjRmxI1QaiqCL5fB3H36PDbrzGRmNPyHLLCRkoTyIjAJz5ysmdhHShQPcsXhYFCpRLbZUykSGMyhqdBCxrb/e856jBxZSfzrWcb7sZS+LKfbAj7BQK1an71lKdySke1wXLJKSFtJ9NJC6AMKlE/JWXqtYzZ60PtYatqxoyLy6QxqY1GPMUnkG3YwamWON3jyVn7o7fV3ImKoGqvzNMttbjkcD0k2YzuZJ+OCC2cTjB5aNLSvS0Eg/wbVJTC960Ytia0ldsqxpz1eUBs3KiL6Uet2NCs0JJ3wxJtH885+2dOrETFEZ57AswozTV7zi5TFGufHGm1QSnRiWp65X35e0S87MgenUywqKgMQQm4oOehWDDAbTVcypVJ57R0ssC5h7WqAmJYHChmDNNrO0wBZbyC/97q1ohwIndhyxn+VDHrJnedjDHx4F15cTpk5bozog/7gycdLkMndOt+t3dYI8QJS6quXFaJIlZFjOqRsqIQRu/MfaXXsRW8dLttY6L1EmLPXRSNYQ1CAe7a7W4SCP5BUCtz8rK8vWcOoBZTe7SeX3aOqa+oRcwrXdp+tf//rXZdZd3dn2ywplB/grruKm/nO2nMT64RNPPDF6AXT3rkh5tLKhL7WyfVFPPvnk2F7OTFMKYA9WBGoiC8Uw7me6tk2Lte5YarrdbFYwvrrx3AQXG5WPFBRG4RUeGfzOwoAkLd9wnYWDG9esUKBkCpNWmF1BkKN7dslgCeqizff5y3/X/BkS9ZHH3SC7XbIm+niHot9Vwwq2DFTbsoa/OoElomJTYdALDRVpO5qQ56krKpk8610gk0aNNWxmGiKIbIytztC1hzD1jBgno8/ycUVJmyz3ZLJ212xrQyDuZ92Q5dY9OjAaSN0SnmEfdY9xy5GG7z1lSL3HX3ESBlJUv/huqjDMBNYYXREs/5UVfamVLrzw5zFVWUGZXDNJZtmEgJVnAoxM9IHn8847r5LO4UE8xoNOPvmU2IT8gvPPL1f86U8xJmgP15GA0mRBVUCy0lNgAFnmurkkO+9QKBZfFhzPco3YM57xjFh3pxFg/JP7LGRZufa+NxySFFiNJhR536QDLV4EaTmNXYCmTJvW3V5vNYF88tX8U045Jbq4dYmPBTL/5Kd89lseuTZcoGveb7OijV+u7sghDd8MzPTKY0VAlm8NX5Nc5KFynfkLvXnN/Wgg6wt1gcaYsUuN+JRpWZFpzt+sj/hNV50tm1OHadyYjKUebBgZ+qIhPuprYf9dd80KwrLFnbMJKxPGd3fCX7NamgrYb397USxi9skaXbaHH/6uGBd6W7Xi3va2Q8uhhx4a64+804tUsqGQRElhtLIWh0KTa5r4lQXEuqt11113wFU3nAzLUhRbsakQVOreye6bPCDPgyMnG+j6mRh7017xp8ur4n64HHHEu8uXvnRiN8wB1zCsd6OExQvv8HEcHJmWDvnpzF/XzhmGTa21ejVINFx0F40mxK23suyNa7bWH/nIR8ZkCXv96qI3ySuR8RptpM4D/SZ3pveyHuRXwYJzNhSGgoYtsjS5J5FlZEUB+fVeaYxZB5q9TuR0uB5teTM84bPI1T8a8SPVH/716oE4+c1/dZWz7l71mPFL9W4v5H3m9UhlGAnILTxh9+bB4nq5tAe/ejkj7/cTfSHLzTbbvCqlr1N3NxqwnlEi5MbohLZecc01fbesOzNWK09mWudoizpby+lX/+EPfxhT9fW/86MXS4r84orvt5aU93QJq4Tdo1DGo1h7FgfrDlHZpMKkP87ZvZG/E1m5utd7fzAInwJfd90/Y+zrTW86sJx44pfKtddcW7761ZO6s4ZzUk/nbgt5ZQNllWfi23uANJTe0irTU0VmVxVbFWqQ6KKnF3okRhO9+debn+Skh/JDD4SJY7Yrs2E40hQ3+g69cR0N0Fm6Lb3pbo5dpfzLcvCD3tNpccjr1PHBoLFgKMUmH9zxBxYvs2MJctFJZV16pd71IuUeLaSOkM2sXIRJh+5tAzHzctF1/ct8FI7JPtbC6tVT5hLc5ix0x2igN6ysL8jhOuOxtAcoo5D5yx/5ns/7hb6kji2uTIAhIIFZUTUb4hnVUJCRqaUjxiWNa1IQhZ0rn7GyBtN7rFKZy5/eyMr4kcCYE3+QpQLj0P3BmvSM3L67l+76ncDVQ/9q6/HasJx1Pxv3cq+7WcG1Md5rr9hu0NU6qA2KsUamgvToJYHhCEGeZb45eguF99IqZ5XQFQvaTXGXH29729tiJjJC5ceKUunSXbLTPw0nlY1N330aymJ8xO45mUeqoyOBylW4119//aIlUSwU3W3uLcvhXYfPk0l/eSZ/hsvrnHNg4pq4c+u9vpefEYL+kIecduIa7QbYUMg0ddYIy6VI8rDfyDIIumONvSNnWzma4Z15TMcRznD53W/oZTSpT11gNrDD78H0c7hDr4H8pff0UcMx66B+l8e+kKUB5P33f35cdyuXhTGxx3hlt+DNqyQ1IwgyKxfujG/ajg5pIlNduZZNILDsMoHMxJEURAmm4FgG8LWvfS2sAvu4+pYdS0E3Ulo8IMx+Kg2/rEH1ibAtttgyJkNJA4pqB6ANNtgwrBTWdJLkaFa6Q2KYtBanwY58Jr3Fofc+9FbA8sE4oE2gfcvSVHfPpX8S5liDrPRCfMhDLo0tQwUKt704VXKep5vRgoaHiSGsBZPRnE2gc7beeFkO79tA/oUvfGFMtJIH/B8O8pe7LM/SBrLMjjWyDMkXhJkN8LFGVuR0HVz3/u4bavFNf+WJs7rOPtdIxoQfRJVWZco1WtDDRuce97jHxfDLE5/4xPg9mH4u6fC+WetmPWsMyHvx6bcujquKfu+YYeDt22qlccghB5ezfnhWmWx9ZXQrVkWYMK4WpPnlsY99TC1UvgByW43UZZF51mV63/IREUOWvPvEJz8ZlScQz7OsuEaCVBjv80diatWl+a5AKUzccZNu+4IaIda0btYrr/xzbEdFSVVGGhVk0XDY6wl7lcPf/e7unpUUvc8ZfW8gzVjDehAo9RlnnDHw5J7I9HVkxZTp7Sy9Lb9AlD7HZZmIL9UbU8n09h53g40798KniCxZMGnBLNWlARkynHfXtLbhtAXhxkkHA7m5RwT0xbXKxf3Pf/7z0UtgJxZT9DPO6f9woG8aaroHfdbKB6iXhJRFOCxaecHCFT7/7m3XPb+FYd/UXPsLQ1U4PoDwXwceWH541llRyWVjQRm6t7L0AymP4R1fQTExi64paysC6JS0sjELPbI1nXXiSwLi17thYqQGtnprMIi/vFOWunVNtx6Vx8cdd1yQFUvTh+n5sbQ65H2GBwvOXJXhEOXNuR70Sxjf+c534osrPilmKQ8391ZnvI8kbWOYKxuyvAylvyNCFfbeYeHdx8//7/zOQ/fYs7P15lvEsf0223a22mKLzjZbbd05+M0Hdf52zTX1uLZz6SV/6PzkRz/unPA//9M59C1v7Tx93//s7Ln77p1tt96ms2V1f9Wf/9ypytSpiRvnGvEI6t6gJmic+UnWqkRxz+98Jpw8+obq17w5c2vA1d958zvvesdhne222aaz9ZZbdXbYdrvOhve7X+eBuzygs8duu3W+c8YZXbcrGKTHxRdf3KkE1tlnn33ukU69R7rNa2l72223dWqLr1Ot+U61YDqbbrppZ/PNN+/UCqJz+eWXR/46QJ5E/lRUUorzUDjttNOUwU4ly4E7S0bKBYcffnhn+vTpneuuu27gzr8j3dOPWjnEOe/deOONnf3337+z9tprd2oFEM9Sj5YE7l784hd3amu487e//W3g7vCQLsJ2vuiiizozZszoVEvyHvrrOsvLshzez3frjThneEPhM5/5TKeSUefMM88cuNNF5uVYI2WvDYvI58MOO6xTiSbujSUyzaXvzJkzOwcffHCnVuoh59KAHnqnWolxPRTkaYY1e/bse+jm3//+984LX/jCzpZbbtmpjddwo+wtDchdGx+dnXbaaeDO0OBv/a97riDDN7/5zc4GG2zQqZbtovv8dNTGY9xb1sO7/O6tR7Ic9BP3nnaj6VDrrXo86MEPjq3ioiVRGb1GorZquvvCfutb3yq+JTljnRll+x22j5bFi1/yknLMscfEgPPPzjmn/OxnP4sZW5tsuml4DVoGVc5oKTiWFflObiXHr/p/tLb4XRM5WiD6vfO5331D9cs3LS2dqTZXedfhh8eEqPk1TWbVVqLZcDfccH255eZbyg9+8MOw0Fc09KaHyUhahIMdZozawsuZ5cNytL7N57e0ZrVEX/va18aOKvbo3HbbbaNF6aArLIHMkyVZlqMB8aYPjt6eB7/tNMQyNSFJt6zxPvJ39Wv5wwQbXaDkkWbGMJ2lpXvLcpDbmey1eom8WFI8lB9hCVe6pHv3xhopi7IvTcxHYAmNpP7oNzLNgTzqRr9ZRv2EPI05IdVvZSnDFJ4yqTfGePNBBx0U437SSb6PBuQPeeiNQ9gOc0fcX9aDf3kA3cz7/UR/bFRdrvXf5KlTyrOf+5yy5TZbl4X1d23blHkL5pcJlkzMm1uOOvqoGKNEpHb96cZlXHydwx6uG2+6Sdlxp50icxW6TMTeY0gsrIkls437+beg+lqPeKP+tvVebWrEUhZjg66pj4SltMbOwum9SGBdHt5PpaMIoHtZfHgtvOc//3ll2kDhoLwmOBHmJz/5cTn3vPNCXjKlAuj6c47CPnLxlgkZdlYwlA9U0ohjsEPlrQCasCM9keQBBxwQRKkRZI9OXZbSQjr0IokSVoQKNyHeKU9vF5600X1rcpauMXE0jula/juiMhxYM5vp2E+oDIGM0p1MIwU/5Ik8EM8k0KHAjcrNgv/U89TZsQa5ySIu4iFtjC2nnGOJTB/lXv6ZxyEdlZl+Q5kE6ZFlSx6rp4xf+tKSYQjduiZASiv6C+R0ZN3TbygfwuvWi92wRor0p7dOcW9YvhgB+uJbRHSgYFlUbtA2KxgRcK1wnXPuuTHe1XVfA4/NzO/Zsh2ugC4JXT8GKveaUPyrlngQY9fv8TF+qNAoTFrRzr1h5/WywjtI3oxE32Q0s0s47ttwQMZlGI973OPLbrF2szum0E2rccXnxU444X/LTQPfUExZpCE5g4RHnjzLhAwfMj38tsTjBz/4waDH97///fjupwlLP/j+D2KfYOMxxkbsg9lbeDMtVkb0posvk2ilW/ZkHJUOyHc6Lc98RWZFqKT7DWPrrCEL/pVtlT8dXxHyVL5kRakBZ3mLniMyjjXI5pBmyJJVZ2a+36OFNEb222+/+LamDUG+8pWvBFF6BlnfkCvqnYb+kGUWEBW/Vpydb+yYQWFZIlFp1MyhJLpcTVt2LROc+4IBGRAi6OZEnGRzmFr847PPjgF/uwvZwN0bnqnYgCz3trDrbrbFlJmetsszTdtkFl2QlJH/W2yxeXnq3nvXQrxBbVnOHGgRdcO++OKLg2RAJZvySMOUczSQ+SJ818J3rfA4D3UAt7VKWFR55jlJQzzkPXcrO8TJ+lCz8nTLWg6ThJlpsqKQSD+BLFXyGoYgjvSkb+W5D9D1qgvWWmrd5Gk1jSVSD+g+a87uPZZMjaZ+yCP6qbFjCMFkShPWTL4jh2fKaLqTtw19tCxlvkpCJWisysyk2Bu2EoHEZs4rXMa8ZAog0CTMe58hCmlX4Wbf1V1rM2HipCDGY485JqYXv/4NbyjPfOYzypv/681RkKpmLLI6yU8WyjISxc1WK7Izs83HZk877bTYBvDNB705pjb/x388OipV3R5mxK611pqRPt3u226Lz2bzWnkKd6YJecgGZB0NJJFlWmQaOVwPdgD30r43DV2Li7iKh7RKdysrxEcc6LAxILMKNSRsLWY3IpAm0ivdrkow1o4wTdc3bpmN4RUB0toh7Y0p271HvZPzEsYSqQfKgXRDlmbrSr/RQpZXeikPNe79/uQnPxmWrnLJyMm629HQJ7KklKkE2R3jqxq77LJLPMvKEUHpemBdmv4ugxZXkiSFkcC7lqNMnTI1xii+d+aZ5cUvfkn50pe/HOGSRYX2m4suKq9+9auj8OQSjSDXeqQiLSsQnQaBT+5osWkYKKgmFumGnThhYliRf/3rX8qpXz811jldc821YYlr8VpaohUn7OtvuD6IlsyZdl3rc2yQeQu9FtPih2fSGDId81ne81yeS+t0u7Ih4+ZInbHZvvW7PgXlw9GWhbgv7iuCRdNv6NpksSlnvsko75W/zOuxRMrCqlTe7b9qfexvfvObARdjh9R55dk6WaRkCRA5Rwv0MolQnSV8QyUmWFrzTF/VYWRtRHk3+poSKnYVobOWp4X/Bq8prkSnxM5mQ/oYq4wCmZIVy4gzp/Kbd+fOnVcuqJar70b6fqRu1y5RGqucF89vvfVf0X1EMYIwa7i9FXet3geulh7kz11U+JVE575jgTjWQ/oYp0WOJv5oQHS7NsVba6+Szrz5YZnmFy6SoDKNRgOL50P+Hi5/EEfKufgBniXpSyN6kc9WNiweN/GyBtUn3DR07MEp/8XRWO3KGs+hQC8f+tCHxsQUeznTi+F0YzRBDrqW8tjkxNpRXY1jjSwfYK2knXVYvqMJ4atTnNU9yq3xS5tS2KfZpDXlM+vlVU13R4q+aHevcjqy1WKx8j777BPPstXJ2rJPodlYfkNmhszJe4OBOxVQXvdWtt4129KEEi18GR4fVR2QyT61nFIMViAyMzZowpGWVCoHP3Elf/NYWiDglJ+cwhJu9S3um1BkWztedhWxaw2reO4Of2HsrevLFlp65My0Gy5t+o0MS/x7w10aGbjJdB/Kvfv0ZGn8W9HQGz95nKDbPmquy1/3u48jZ77C4rrEn2XRrxUNlgttscUW8fUcXc9dne7GJ627KE8DWB5xzUpfY9k5w5A3rqWxJUqGhgyP6DZ2v1vWurL1ytgvpBy9EE7qglnELHIbEUjD0US3XuoeII10x9oswKJ+8ywYGVk2c5Z/6rI0z0bv6oS+kGUmqkq/twJx/5nPfGZ02UhkA8m6H9/6lrfEsoJ0F9ZWdZvEMBQ8S2Lpdl12d6QwWccG7NYMGe/zZRPjpd09au8m1SxAZsgiRFadnUjM3uSv36kM5MljacAdC0LXs6+V6AISng3kkfPESoD8F2f74JLJNe9ZvNF9XN9Zo/pBOb1rWjfLV+uPe3KtyBgqvRa/N5S7lRXi0s3LcdGTohtWt5/deXRTykvP6FbqGPeLKvqVEOKDhKyrVW5ZJMqQa/HLNMl4Ko/u9RuZtpUm47dr9yDrEnnhA97K18c//vG4n27IS8Z+I+Oa9UmGmcfxxx8fuqBORFDZyzYa6E0j1ymr/LQEilwmJxpPVRflXBTupBWidF/arU7oC1kOBzO9Xv/614eSmi1oWcmUqrQSPisKZ4d+8uEUV2G0Lsm7ro0LIZTXve61sWbI5BqZat3ihhtuEH52Lbm7rcRFRyVMCqqF9+EPfzi6PFkGlIjfywqFQsVhKzfLCKwrFN/XHPCasuuuD4o9YHfeuTs2MWuWMQFfYOlOzUbe1n/qIr7hxhvLOjPWCWX0jEzkJZPDdcOKC/qjW00r3ZiUng55qcJM3crzypyXSfQ+iK4cfvvb347hlbQ4kiSVC3HNZUP9hPCzoheOI65r41k9oJIHstgzVyPW8h4WnbLvXfLyZ3nlhTDkNxlck0s62ada17AlVeRG5GMNcvrIuRmyeskYHnrI5KM8hGzIOzJ9Vxcsd7K0zklfuK6pHLtJxc4MkBkOoExDwTv8kIG6WHV1WfTe7a68KxTf+9zNnDkrwhquu4A7E2wQrr1CdeNmJTAYllSgPKdEwjT5wcbWh77t0FC6b3zj9HLsscfVyvMDMZg+Y8baMTZpV6MpUyZHFy1oBat8jGXowtaAoKBkHS5tGlYMyH86tO+++8Zww2c/+9moGFMvUx/laVbUKyOUXQRgn1D701oaZZw9y4+4Igdl1TW31jj3E9I0ydLZIWx/woQcDlGeyKmxfeqpp8b9dL88ylWvv4vkqod8/8IXvhBWm0mQuoch5R1rkE+dSnfzU3R0mnzkd61Xz3XGa3XBcidLkKAUFhbvalW4FLwkThkwFLiVaVqxdoL53Oc+F2N7LDLvZ+YJy2/XujgHRQ3Grj4yXteZ5Sw+6muSTirGsiDd9yq968mTuq0v3/o0Y5KV6fM0//rXrfGJLvAq2aWLSUDrrLtOFGzbxvFXC86Zm+HSp2HFgAadRqLPj8lDm2VfcMEFoZd0GPKc5WJlA32k33TWBuW68DQKc5a7Z3RVOVxUJpaT7gpPJe6A3nLCgiSjAwnYtN9m3hrY8kB9lHXP8gA5Iv5VRjCpx3wKlu7zn//8Fapck1MDTrr4WDTLV7csS5ic7tPX1c2iTCx3stSCQw42IkBsMoRyup9K7p5DZqTCDwbv6UL54Ac/GEqXa4HMLjWb1Lt+y1CqpzU5bdoai5TxHkf9W9jpdn+Qw6w+O9DYzYJlRxb3lxb8FAdhZ8H1/rwYj+zet9uJsQBk757nPoitQPtcGaJcc601y2GHHRZjvbpgdcVq7fX62bDigt5k3vqaiEYdHTNpIvePBXrKHb1ZGUFucaSTGgZvetObYi1jdjuLp/h5noTZb93lLz+FJ90TwkooQ6C+sZzLh8aVKWsK9SjlEoned/oB5CzuEOW2ng0TsSqFb6213ifEIy3FYaxBzjwsJzGz23pw+zkbc5be4uUMyyPdVmQsd7LUclNRPPtZzypPeuITyx6771EesMsDylsOOaRc949/hKJYizihZlAUqpoZQ0HG2F5MPz8lU+EoBO7brYcVaQs5yy+OqWG+rmZykGkNo/egrJnhChkZ0+I98cQTw8p03fV36Qo4BcuKMBsCfrNePTMm+pa3HBJdVfPmdbtVdb/efPMtERcW7g477lA+9KEPl+c+93lRASXIy33K33C3JT9S5Pv9Tk96Jd9TF+irJVTnnXde6JbJE3Qt9WUk8VhRNID89NI+wDYh0RvCamNJq1xB/FJ3M036CUMZtpa0wB+El2FJZ9fCz+EbE/AQ+4UXXhj1Upb/fssm3AwbyOdzctLnZS97WawUyEk9ZF4Rxiwzr8hCT32ujTWuPjQxMyenSUeQZktKt6G0eyR6P9ZY7mQ5rqaJ71tSDIrdWbig3FUT/a9/+WsQSTyfPCUm3NQUjErE5tPcU2LnJMQsBL4JadcUv5GazPVlD1/z0H1w7rnnxRjpzbfcEtYnd11F6BLxoW99a3nu854bJMXfrOC405J673vfG1PMPRO+8xIztz7XOiRPhhdxXjA/ptYfffRR8R1Pu/b4vic3Pni9Xq1oJk2aWB79H4+u4b4vKtd5A61MacEdpHyjBXGGjItzXo81UoZlTQ/v5bt5lsb9BH8j7ar3KR9d1FVpxqheBY2f3op8abFI/gF/+ZPxSMtqWfzrRfq9+DEUPBNW6qieGRWrD0mrWFmYPjLc6y6vExmGew7X4Fp88neela3ccStJ7rtnfjeI2uxS8CzLinrBWYMZlHdy6LWxJ6qlY75+Y/4DZLi9YWfDF1LOvHZfmXcmW9ZTWQfk2dprPUq2wmStmRQF5CSPg9vhIAx+88+RcvQT6a+wWOR+awBZg2nIC9GLb+qdYzj0Phe/1AFn/vBfWme87k2c+Jvv9173E8udLFOpgwwNvQ+k3/Tpa1SSGtjFpd7Mj0Xb7Ub3KEXyjIJnwkoEiW7sz+QXz8NCrH7u9/T9yvve977yute9PrpbWJkG0XNjde8hZf7uXFuXuhYUbO/zG6lmIVPIKTdrUPiJ4TLABJ3eDBeea7Nijz32mHLJJfbQ7FQLcnZYlBTG83k1ffba64nlHe84LD5rJY5ZuMcS5Fsc4jfY/dGGNJJXmV9LWzi44Tbh3X4jdYAOZ6VgTHz//fePri1DCNaw0VGNqV55hsNgcqucXdM1aQFL69/i4M9gx1DI573h6VZEksbjfJFfV6OuWe7ENeGdPKSVdOImysMA4Syet85+z63PQXlVgQtDd/dTnvKUuJ/laihIK59Xs/k9ckdghxxySOzfnBU3N8JzVhZdJ/La2ZENbtfZW5Wyy3tj1QjZOOULXvCC2DOavMJK9xnfocDvjFNe87/f4Dc5xDvzg57SWRs7mFBpEqRJUr3xHgqZf3nt4H8enuV9YY60bkl/vJ95l/f7ieVe8ykkM2feWRMWeWTCldrq604ljwSqN/KzWZlguq308SPa3mnnMkiLUWt95513jqnOlmiY7vzwhz0sJsfo1r3jjjtjjJQVpyUkMWvyReYrLHYYOuDVrw7iVUD5SbkpsN8sS7sAGdwmk/dTYQeD5xRA4UplNuvuiHe/u1YYl1c/jePcvfzDMbXKZU9R+4nakst73fQY8HQFAVnJ5qCMKwLIkQVjaQuF/En9yjztN1KHhMV/19LNchKVsnWzKmrWBhm4W1rwr1fm7PXIe8oK3R0JMh0XP4bC4m5Stu2226586lOfCsvtpz/9aZwRxeINg5Q745+VZW8ecc+NZ97PMPTUvPzlLy9HH310bIygnNpftdfNUMhK3tpve6IawzQpiQWlmzTXbwvbWX5yD/xN2Vy7L83dk88ZNiI374F/LEmbIQhHd7xJM97rjaM4D5dvGW6+A+71GxnPPIsTZFrZytHOVKl3kOfBQEbxy3yEvBYX/oh3PhvOr+GQdUGCf3n0E3en/nKCxLAnak2jQDfxujMGw4KqEVowMAnGPq1aXLqrTIxAgBI0u1JlnndMGLLzhYyzZd1TnvqU6AbqbilXW3uV+BD0NddcHYroHf4qCHbL4JYcPlbNwqTA5HEv3Ut8ffTC9V7IN0zie5YZlnJqgXk37zn4w8JF4AcfcnCEb1FyTZn4xqfxVmky1pBeCYotPtLGMdborWhg8YpkKMijrv5135MXvYWsH0gdkX78zjRzmBlrT2LWBktmpGkpDEeuwVVGhEenNPpGgvRz8WMoeJZpnhVelhFfHNIwQA425kaYuh7POuusRWXZu5n22cDo9dOzzCcEJ17GJjWMLUWTfkjSkIm13MKmo0sqp6nX/JNeGquWSGjMaLTavEBXuUaNeGW5BfLwH8jpPn+Exy2/vae70nAKq1evgnrKcjFju+mf970j7rAkXVg8Tr163C9k3KQL9P62htzsbuPu8rQ3f4aC5+RO2f0WZ/oK6txMv3Q7EuT7vZAXS5JvWTGuethfHxfDVdVsP/CNbyq/v+SSUBJKoYtUt9Rhh70zZqPpKmUBauFR3DO+8+1IVMpvfMHs0JzVloorgdJN9WBRQpsgJJMNSr/qVa+uGWNqeJcsJ0+eVPbb7xlBxGvPQJjVfQ2bcuseSf8oBzJWeLSUIQvHUMgCH8k54C85dBV99tOfiRaoAC0Xud/97lsrkJeVZz/72fHOVDv69HzzkiJOmjK207PJkWnqWt5YU6eLzTcrxxLS1eJyY9cqT5YaDFfYMj7edW0Sipa/Wdrdxkp/wG9HVvquVQ4qBWHTA0SiAtV1aFam8fehkHLTidQPC8b1qMgLOprWUlfH+6s38nwwkAPIRveTqMhIDuWczD6NZ5cs+XXddddFV60lE/aVZbEgE26VucX9RKwmxpi1qoyyVE18s7GJddG2aMsy55088vdQ6A2HjORlCX7zm98Mq1iPlPXO9vp1+EYv+eSheIpj5mW+q6fARu16k1xbP2kij0kyerG8I6xMl966hF8p+3AgtwY8K09aODT8+wl1IBnJ4jrl9Fu8lDVbhNqB7de//vWiZ4Mh45vX0kC3twlW1iGbX5I6Da5HAu+nHwnlQL71TpS8t1juZHnlFVeUN7z+DbVS0p3ZbWHLBC1su+4gy5tvvqmceeb3YvH2xb+7uCpmJY+F3cRV0ejC0JqUcRKdyJmJi8Qf6OIFH5U++aSTK8m+o2Zkt/BqxegKfn2V5TUHHFCmrjEtLFGF0vMvfvGLsc4SKctIrSgtQeEpINzxYziFzhYT9+JIftblxz7y0XLKKSdXvxbGcpYDD3xTVJRk6yqmeNTW5cQJZfZdsyt5Tqs5E16NOaSvQ3c0y4jcGjRjCXniY9PGgIxTs87JKL2Hyh95nBUr2D/YrlK623XL9wtkoytJjmRyL/WeDAgaySEKMzKHIuuUVZz4wS/3kCWipG95D5zzelkxVLrZrm8wCCfTNJHx9SzjzI3yYPxfRYlQpLneIWWNRadMABkyribamXiDMBGCRqsKGvmwJIXL7wxP2FkxuzcUMo245wfC8553HORCzBrb0tlXhLijI3YAIovf8ti7LElk7l1rTQ2n+EC6Rn6Sechm680o53fLmmnEL+6Gkxu451Z9aJ0oS1392S+QjY4CeTI/yOsZ0F1jvdzpDs80HwwZP6CrCEy5RbjmhaTOiXdvviwr+MMP+pDh0RENUXnRLyx3srz8ssvKa1/zmqp0V0cG+NKGEM0O1J9/dVXGz33+c+Xss39UFe/mSnQItRaE6k6Fo2WpoFgcy9rLxCB2ZqSEWlgTChkZ95w8dUo56sijggC1CCViwr6drFpdvjV7IkP5Qwl16VI+357UGtSFmu8r8BkeZAaD+5Sh141zKEt1d90/rost9ayzU0k+6EG7Rtyqo9iaq9v1ulhBGbzuGjOotGzjJ13kw1hDV5CxIJNmWCtLQupLwsQTlZyxb/nWT2T+C3OwCtB9lY7KVuW6NNZgyu/MktGVm7oPGWa/oVtyKPTK1HvOZ45e+ZQjm36w3FSWJuA55KWy5l3ulUF6hkg1JFjeunZZe54vHgZkOL0yDIbBnqcf7meaauQiSuTJOmYVO5JcQb4h0ZTRcI4je8FgsLDyXm/+LQ286x0NV3LpGh2OrO4NUp8Wlx80fNTLGs+DPU8MFld5fckll0Q6gucZlueZF8sK76tvgR90ReOqn5b3cifLX//yVzF4rqWIeGpU6jGuWgTvjUSyHdjf//6PIFG/dZnOvGtWKJwERWKsGV1XKsYhUb21LEVsEO4rXv7y+Gr9xHrNgjTz9j73Wa+8//3vj26cOXPnxHITypYZqYtDgc7x1Lyf0MrOxJdsWldILwm3N9MXZV6VB2FSEgVw66237ipEPcYNpehD619DwyoDZU0ZclZWNKZB2VEulcHlRQbLAuWVjA7X5AO/yaxeU+aV/6yw+90Aaxh7LHey/OmPf1xe8YpX1qvayqzWky5GY5bbb79DdL9ee+3fgsgmTep+mcM2cMYTZ1dLTevSxAATBCgkJc0C9W9YePd2TMYpLQvReuWv2bEI1JTt4449NsZ7qjBB21kQnLUUKTzkfUqPsIXPenRPP3gUlyqP31m4tY6dtbq0jrPbdm4l/dicoMbPWlMkXQOI9wdFI8uGVRjKliNJB/xOy8J95TCvexusYwGNdvWOg1yLN4r9HmsZG5Y/lnsOxwzVqvS6VufO6y7at5erjZd9Aw8Jdcd3FpQ5s+eUtdZeK2aF6mLQN+/rDUiHMg5JlJV3tFCVPZOF7Iqz6aabVbLdsEuelewotC6SjSthkkf3p7MDSXLHD2cQHtkQpWvdRSYq2P8ytsOr8RAXhwLDH/HQNWhCkm5js+p+ceGFYVVbH2byURBlBff1v7huaFgdkOVtcaJR7vz2LMkon68IUA9kvQBky98pb5TnCmcN6IZVD8vXsqw+f/Mb34iZpqxGLTR7tYY1Vh8jQd2hLLbuR5JLTKrZ/4UviEk2xiwoYm+XaK/SLkINZ271QxjMMoXPmJB+fVbeP/9pvOGfsWzEDMoYFCfAQKGVBM5pJbrWJasr2Fidj/giSZ9cMkZhNu0TnvCEkElB8h4i9y6CN9ORzEjYIP8Ddt65WsgvrRbt7tX6lAYaBzXMweICK0Yd0dDQdwxV3QxGjMoXKI9jiZS5V8bBZEt3WZ80rFpYzmTZKZ/8xCfLBz5wXJBhKpEJLV2rrLtDj3sIE5m86tWvjoFj3bXuIz7WHXcIaKjWZqf6Fc/qMX9gAwC/hSPcuZWUxXR6EGXXj5hxO0BY3GZSzJ0zt1qA3W9nmlFlqrRp0zY0II9p79aQJZkjS6SJWM3Ws8sF2XXLrrXmmmXjjTaOsdKHP+IRZdbMO8satcHA4mZBD4rBo9jQsFJD+co6oBfZEPZMec3fGsZDlffRBLnI5CDPYD1cvc8di8exYeXHcs1R1POvW26pdT8FKvFljVgHWYkNI1C6+ZV81lhjWnn1q15VPv2pT5cnPenJZXolmLQgkaQxQm6TzAaD7fKQltmwE41TViJEOpaR6PqcXMmMRRk+cFvlQFap3PZjtWwjZtNOnhSTcn509tmxbdcN119fSW+t2ByaBft/5/1fOemrX11UQIxHGos0iefPV/45GgnGZ1mmCr/ZcptutmmEsYZ1P1WmbvyqNOqCxY+GhlUQSSLKjLLqyGEMjVBQzpX57KlZEUBe5VVjPeuhjIOGvLN4ecZdI8pVE8s3VysXzLxzZhAPyw/RTKoKFV8WWdgpU1iK3NXrW26+ufz8gp+XSy+5JLpOWZpJRmkdDq+E48qEag12qoext2wNp5a2WCIiEIQ5rpKUA1iOwZwDh4lA3bFRrdnxIeteT9irPG3vfar8E6rM86sZjmd1184rX//a18v3z/xeyG4CkS7gL594YpAt9yzZicKu72yz7bYxfjqxknBiYX0g6IaG1Q1JLEkuSHG4XqOxRjbcE0n65E9ib1j1MeFIW5ksL1Q2+HG1zi699I+LFAwpmYTjt25Y95ChjcZ/9rOfxk4xf7zssvK3v/8t7itESAzhwlAFKqmHf+kG0boe6p3hwB9dq8ZQTUa6+uqr4zeyJ5fx10sv/UPZ7cG7lY033iisUpN6brzxpiD2KbUQmcjEmn3BC18Q+9jy07OUaSRyNTQ0NDSMPpYrWaKCOZVUzjnnZ2EpmjSTLci0GHVjaLmxBM2Gvenmm8rlV/ypnH/++bGZuo88W8S8xvTpw24LBkk+/AbkBCMhpfjGZpXJBB2tx3PPPadalN2u3cp3EQ+zbu+8447y4EqYdvI4/viP1zCFpaU8OcY8dcEe+F8HxngnZNwbUTY0NDSsPFi+lmUlhPXXW7/MX7ggNh4wmeaOO+8IorBHqvOUqVOKz1shtslTqjU2r7vRrm5T4xi2nPL1EWsufcJq8S6RRBIQyy27bf1OwlxWxMSf6qcu3e223bbceuttsSyEn8Y0ESFivPGmG2OGrK25jGWa5apbhgzk32PPPcpLX/ay8NO7kLI1NDQ0NKwcWL5kWTFt6rSYPfqoRz869k5ELMb8bDrAqkRyiMnsUNe6U1mRZpIiGxaZPRmf9axnxX5/Q2HxLs4cCxkJKcUmBtU/8vDH+CbZWbsm8cR2fNWNPWzJaInK73/3+3KrsdZqSZtsZGP4qbUh8KIXvag8eLfdQjbHvbF2GxoaGhrGBst9Bx97tgphgok148aX2ZUELa2wv6C9Uu1zaI9O3ZgsNZZlZZKwzhASsrI+0qzUDTfccFiSQW42DEBeomVrOmOOulEHxRAxN0knx1W5QeDjK0F+9zvfiTWWt912a/Wz+xkbxG+LPtv1ActS2GSxUfapp51att9hh7jXJdhqSddnIyXyhoaGhobRx3InyyCkDCLIp14PkMTsu2ZVS+3Gct0//lGuqISpm/M3F/2m3FDJTjcmwrQfq43PfZ3BOCFxkYznaU0iVGTrqwb8sM0dqzW/auBTMCbYQL7f/dE9Ber9eDZg+SHMvPaMzOQ95phjywknnBAbC8ycOSuWw4RlXOWJ7t/6nmUqupJ33fWB5bTTT48uZ0hLNZO8kWVDQ0PDyoHlT5YwSAi2t+t+cWN8kI3lJPH9uttvKxdddFH50Y9/XC4c2CrOBgDPec5zglyQoNmxxEZOyMfMVJ9cOvvss+PLAF3/u8TkbPd5n3Hae++94z33rYs0wzb5atz4CdGFeuGFPw8SnFGt0jWmrxFrPKdPd0yPscorrrgyZr3qkhUxliQ5+GN3IiQZpFnDOfjgg8pBhxzSDaChoaGhYaXF6JDlYIhQ63+VZYhwD0uuAsmZBevbd6xC+7qmRYns0o2uzS9/+cvxxXSzbXMfWe6AdapbFlEiXWOPi8YjIzxsSZhx5aYbbihHHHlkfHONTJaJIHLu+TNpku/arR8Ebgu9ddZZtxKriT7dfWW7lq9vZM4LOb7+ta+VnXfZJTZQb2hoaGhYeXE3O40yzDLNTdaRIFJynZsRjKt/xirtweqL6sjPkV2vab3pcvUdSr9Zf8YE3Q+LtR7I1Nihr3qzPP3OsdAF87vdpojSpgPkET4rMYi5/mbJ3nXXrNi9xxdRrrjiTzHJx+QeY5e2xhM2/0xK4jcL1Ke4Ntp445ChoaGhoWHlxpjX5IjRkaTJOkM+yBT8NkHHs7Qs0y1cddVVi7pePdMli/C4AWdkifRMJtLVG+/W+wgu/eHce7fffltcJzy2ow/S61q0lqNYK4m4J5S11l47wuVPd8mIryjML7vvvluQt631GhoaGhpWbowZWSKXtP5cIzWk6TfSQUy6Nt1Pdw738x3wNXO75CDVfDe3oMp3EKjDV9rzm5PVg/r2gIVaw50wsbtFnY0GciZs9+BHlXXgN7AqkS8/df0Ki5yxp2z1e8aMtStZ7lGmsnJjH9yGhoaGhpUZY0aWyCW7RKPbtRIRonEOy7LeQ3ppSebhubP7Sajgdx7eRWbpt+9MOowjOpKEWYmxmTrrr/o7jzwL5sfsVeSLQIVn04QFlUBZu5MqId5+x+3xVZQZM2Z0iTuWvMytluncIM7tttu+bL3N1uFnbOje0NDQ0LBSY+wm+IwQxM0D/vKXv8RMWZuvA3I0bokswTXrD6n5kPQb3/jGIOG0OrkPwqvEdtONN5bLLrusXH/DDd2ZudVPS1fs1mN9KJKdVc/2gb37Q9Z3W5j8QqBm3voeZxI1vxsaGhoaVl6sVGRJ1LD0Kgnlb0T1qU99qnziE58I0kOExh5ZnSxL7hHfwx72sPKOd7yjPOQhDwlisySkN+r85Db9d+YfN34jRv4hTGHqzs2zA6FyYzKSyT3GSYE/0e3b0NDQ0LDSYqUiS6SV1iASAmdLTBDhBRdcEMSYY5aeIU4bExx++OHlMY95zKKxTBYhqy+RyYDweokyIUwHvwMeDRiM6c5zxJhdwSlDQ0NDQ8PKjZXSskRGSClJ02Ej889//vPl+9//fnSfWuqhC/aRj3xkOfDAA8uuu+4a7yHBfId/rEUwRjlSpD/pd8I9YRonbWhoaGhYebHSjVlCkmaSlM0DREIXKSvzpptuCpLacIMNy3rrrxddrkmQkCQLzn47YHHC8zuxpKTyHjf88l6ee/1raGhoaFj5sFJaltBLSO71Wo2JvJ9EmM9yPNO51z30/s6kyXuL/4aUSRh5nXIh71zS0tDQ0NCw8mKlJcvea/DbgZgySp6nu3ye9xd/F3rvwVD3e5H+QxL3cO4bGhoaGlY+rJTdsA0NDQ0NDaOJ1j/Y0NDQ0NCwBDSybGhoaGhoWAIaWTY0NDQ0NCwBjSwbGhoaGhqWgEaWDQ0NDQ0NS0Ajy4aGhoaGhiWgkWVDQ0NDQ8MS0MiyoaGhoaFhCWhk2dDQ0NDQsAQ0smxoaGhoaFgCGlk2NDQ0NDQsAY0sGxoaGhoaloBGlg0NDQ0NDUtAI8uGhoaGhoYloJFlQ0NDQ0PDsCjl/wMdjAAn2/KmwwAAAABJRU5ErkJggg==;" vertex="1" parent="YH9bnQY_dYv-W6tvIdSY-57">
          <mxGeometry x="4.227886056971514" y="2.259999999999991" width="69" height="19.99" as="geometry" />
        </mxCell>
        <mxCell id="YH9bnQY_dYv-W6tvIdSY-59" value="" style="group" vertex="1" connectable="0" parent="YH9bnQY_dYv-W6tvIdSY-21">
          <mxGeometry x="232.53240397428954" y="31.070106761565853" width="105.69715142428787" height="60" as="geometry" />
        </mxCell>
        <mxCell id="YH9bnQY_dYv-W6tvIdSY-23" value="&lt;font style=&quot;font-size: 10px;&quot;&gt;Capture live&amp;nbsp;&lt;/font&gt;&lt;div&gt;&lt;font style=&quot;font-size: 10px;&quot;&gt;streaming&amp;nbsp;&lt;/font&gt;&lt;div&gt;&lt;font style=&quot;font-size: 10px;&quot;&gt;IoT data&lt;/font&gt;&lt;/div&gt;&lt;/div&gt;" style="rounded=1;whiteSpace=wrap;html=1;" vertex="1" parent="YH9bnQY_dYv-W6tvIdSY-59">
          <mxGeometry width="105.69715142428787" height="60" as="geometry" />
        </mxCell>
        <mxCell id="YH9bnQY_dYv-W6tvIdSY-24" value="" style="shape=image;verticalLabelPosition=bottom;labelBackgroundColor=default;verticalAlign=top;aspect=fixed;imageAspect=0;image=data:image/svg+xml,PHN2ZyB4bWxucz0iaHR0cDovL3d3dy53My5vcmcvMjAwMC9zdmciIHdpZHRoPSIyNTYiIHZpZXdCb3g9IjAgMCAyNTYgNDEzIiBwcmVzZXJ2ZUFzcGVjdFJhdGlvPSJ4TWlkWU1pZCIgaGVpZ2h0PSI0MTMiPjxwYXRoIGZpbGw9IiMxYTE5MTkiIGQ9Im04Ny45MzIwNjkyIDM2LjcxNDE4MWMtNC41NDkxMzMyLTQuNTcxNDMyOC0xMC44OTU2MjAxLTcuMzk0NTcxNC0xNy45NTEyMzY1LTcuMzk0NTcxNC03LjAyODg1NjggMC0xMy4zMjYyODQ0IDIuODIzMTM4Ni0xNy44MjE4OTg0IDcuMzk0NTcxNGgtLjEyOTMzODFjLTQuNTM1NzUzNCA0LjU0OTEzMzMtNy4zNTg4OTIgMTAuOTAwMDgtNy4zNTg4OTIgMTcuOTI4OTM2OSAwIDcuMDU1NjE2NCAyLjgyMzEzODYgMTMuMzUzMDQzOSA3LjM1ODg5MiAxNy44NzU0MTc2bC4xMjkzMzgxLjEwMjU3ODRjNC40OTU2MTQgNC41NDkxMzMzIDEwLjc5MzA0MTYgNy4zNDU1MTIyIDE3LjgyMTg5ODQgNy4zNDU1MTIyIDcuMDU1NjE2NCAwIDEzLjQwMjEwMzMtMi43OTYzNzg5IDE3Ljk1MTIzNjUtNy4zNDU1MTIybC4wNjY4OTktLjEwMjU3ODRjNC41NTgwNTMxLTQuNTIyMzczNyA3LjM1NDQzMi0xMC44MTk4MDEyIDcuMzU0NDMyLTE3Ljg3NTQxNzYgMC03LjAyODg1NjktMi43OTYzNzg5LTEzLjM3OTgwMzYtNy4zNTQ0MzItMTcuOTI4OTM2OXptLTE3Ljk1MTIzNjUgMzQ2LjYzOTQ5MWM3LjA1NTYxNjQgMCAxMy40MDIxMDMzLTIuODcyMTk3IDE3Ljk1MTIzNjUtNy4zNjc4MTFsLjA2Njg5OS0uMTMzNzk4YzQuNTU4MDUzMS00LjQ4NjY5NSA3LjM1NDQzMi0xMC44Mzc2NDEgNy4zNTQ0MzItMTcuODE3NDM5IDAtNy4wNTU2MTYtMi43OTYzNzg5LTEzLjM3OTgwMy03LjM1NDQzMi0xNy45NTEyMzZoLS4wNjY4OTljLTQuNTQ5MTMzMi00LjYyNDk1Mi0xMC44OTU2MjAxLTcuNDIxMzMxLTE3Ljk1MTIzNjUtNy40MjEzMzEtNy4wMjg4NTY4IDAtMTMuMzI2Mjg0NCAyLjc5NjM3OS0xNy44MjE4OTg0IDcuNDIxMzMxaC0uMTI5MzM4MWMtNC41MzU3NTM0IDQuNTcxNDMzLTcuMzU4ODkyIDEwLjg5NTYyLTcuMzU4ODkyIDE3Ljk1MTIzNiAwIDYuOTc5Nzk4IDIuODIzMTM4NiAxMy4zMzA3NDQgNy4zNTg4OTIgMTcuODE3NDM5bC4xMjkzMzgxLjEzMzc5OGM0LjQ5NTYxNCA0LjQ5NTYxNCAxMC43OTMwNDE2IDcuMzY3ODExIDE3LjgyMTg5ODQgNy4zNjc4MTF6bTEzNy45NzI1MzQzLTc2LjcxOTc5M2M2LjI3NTEyOC0xLjY0NTcxNiAxMS45NTcwODUtNS42NzMwMzcgMTUuNDIyNDU0LTExLjc2MDg0OGwuNDY4MjkzLS44ODc1MjdjMy4wODE4MTUtNS43NzU2MTUgMy42NDM3NjctMTIuNDM4NzU3IDEuOTk4MDUxLTE4LjM0MzcxLTEuNjU5MDk2LTYuMzI0MTg3LTUuNzM1NDc2LTExLjkxNjk0NS0xMS44MDk5MDctMTUuNDE3OTk0bC0uMzUyMzM1LS4yMzYzNzdjLTUuOTE4MzMzLTMuMjQyMzcyLTEyLjY2MTc1NC0zLjk0NzA0Mi0xOC44NTY2MDMtMi4yNzQ1NjYtNi4yOTc0MjcgMS41Njk4OTctMTEuOTUyNjI0IDUuNzc1NjE1LTE1LjQwMDE1NCAxMS44MTQzNjYtMy40OTIxMjkgNS45ODA3NzMtNC4yMjM1NTggMTIuODgwMjkxLTIuNTUxMDgyIDE5LjIzMTIzOCAxLjcyNTk5NCA2LjI0MzkwOCA1Ljc2MjIzNSAxMS44OTAxODYgMTEuNzk2NTI2IDE1LjQxNzk5NGguMDQwMTRjNi4wNDc2NzEgMy40NzQyODkgMTIuODk4MTMgNC4xMDMxNCAxOS4yNDQ2MTcgMi40NTc0MjR6bS0xMTEuOTg0NDk1OC0xMjYuMjQ3MzY3Yy02LjY1NDIyMjMtNi42MzYzODMtMTUuODIzODQ3Ny0xMC43OTMwNDItMjUuOTg4MDM4NS0xMC43OTMwNDItMTAuMTI0MDUxNCAwLTE5LjI3MTM3NzEgNC4xNTY2NTktMjUuOTEyMjE5NiAxMC43OTMwNDItNi42MDk2MjMgNi42MTQwODMtMTAuNjg2MDAzMSAxNS43NjE0MDktMTAuNjg2MDAzMSAyNS44OTg4NCAwIDEwLjE2NDE5MSA0LjA3NjM4MDEgMTkuMzM4Mjc2IDEwLjY4NjAwMzEgMjYuMDI4MTc4IDYuNjQwODQyNSA2LjU4Mjg2MyAxNS43ODgxNjgyIDEwLjcxMjc2MiAyNS45MTIyMTk2IDEwLjcxMjc2MiAxMC4xNjQxOTA4IDAgMTkuMzMzODE2Mi00LjEyOTg5OSAyNS45ODgwMzg1LTEwLjcxMjc2MiA2LjYyMzAwMjgtNi42ODk5MDIgMTAuNjk5MzgyOC0xNS44NjM5ODcgMTAuNjk5MzgyOC0yNi4wMjgxNzggMC0xMC4xMzc0MzEtNC4wNzYzOC0xOS4yODQ3NTctMTAuNjk5MzgyOC0yNS44OTg4NHptLTE0LjYxMDc0NTUtNDMuMTYzMjQ2YzE0LjcyNjcwMzggMi40MjYyMDQgMjcuOTc3MTY5MyA5LjQ4MTgyIDM4LjA4Nzg0MTMgMTkuNjcyNzcxaC4wODAyNzhjMS42MDU1NzcgMS42MTg5NTYgMy4xNzU0NzQgMy4zNzE3MSA0LjYyNDk1MyA1LjE0Njc2NGwyNS4yODMzNjgtMTQuNjI4NTg1Yy0zLjM5ODQ3LTEwLjI3MTIyOS0zLjU1NDU2Ny0yMS4wMTA3NTItLjgyNTA4OC0zMS4wNzIzNjQgMy42MDgwODctMTMuNDg2ODQyIDEyLjM0OTU1OS0yNS41NTk4ODQ2IDI1LjQ1Mjg0Ny0zMy4xMzczMTM0bC40MzI2MTMtLjI1ODY3NjJjMTIuOTYwNTctNy4zNDU1MTIyIDI3LjY5NjE5NC04Ljg2MTg4OTkgNDEuMDAwMTc5LTUuMjUzODAyOSAxMy40NjkwMDIgMy42MDM2MjcxIDI1LjYyMjMyMyAxMi4zODUyMzgyIDMzLjE4NjM3MiAyNS40Nzk2MDU1di4wMjY3NmM3LjUyODM3IDEzLjAxNDA4OSA5LjA1ODEyNyAyNy45NTkzMyA1LjQ2MzQyIDQxLjM5MjY1Mi0zLjU4MTMyNyAxMy40Nzc5MjMtMTIuMzYyOTM4IDI1LjYzMTI0NC0yNS40NTI4NDYgMzMuMTU1MTU0bC0zLjQ1MTk4OSAyLjA0MjY1aC0uMzUyMzM1Yy0xMi4xMDg3MjMgNS43NzExNTUtMjUuNDI2MDg3IDYuNjYzMTQyLTM3LjY1NTIyOCAzLjQ0NzUyOS0xMC4wNDM3NzItMi42NjcwNDEtMTkuMjU3OTk3LTguMjU5Nzk5LTI2LjQ2OTcxMS0xNi4yMjk3MDJsLTI1LjI0MzIyOSAxNC41ODM5ODZjMi44OTg5NTcgNy42ODAwMDggNC41MDg5OTMgMTUuOTY2NTY2IDQuNTA4OTkzIDI0LjY5NDY1OCAwIDguNzAxMzMyLTEuNjEwMDM2IDE3LjA5MDQ2OS00LjUwODk5MyAyNC44MjM5OTVsMjUuMjQzMjI5IDE0LjUzMDQ2N2M3LjIxMTcxNC04LjA3MjQ4MSAxNi40MjU5MzktMTMuNTYyNjYxIDI2LjQ2OTcxMS0xNi4yMjk3MDIgMTMuNDY5MDAzLTMuNjgzOTA2IDI4LjQwNTMyNC0yLjExNDAwOSA0MS40NTk1NTIgNS40OTAxOGwuODM0MDA4LjM5MjQ3NHYuMDUzNTE5YzEyLjYxMjY5NCA3LjYyNjQ4OCAyMS4wNzc2NSAxOS40NDA4NTUgMjQuNjE4ODM4IDMyLjc2NzEzOSAzLjU5NDcwNyAxMy4zNTMwNDQgMi4wNjQ5NSAyOC4zMDI3NDUtNS40NjM0MiA0MS4zNDM1OTNsLS40NTQ5MTMuOTE0Mjg3LS4wNTM1MTktLjA4MDI3OWMtNy41NjQwNDkgMTIuNTcyNTU1LTE5LjQ4MDk5NCAyMS4wOTEwMy0zMi42Mzc4MDEgMjQuNjk0NjU4LTEzLjUwMDIyMiAzLjU1NDU2Ny0yOC40MzIwODMgMi4wMzgxOS00MS40NzI5MzEtNS40NTg5NnYtLjEwNzAzOWMtMTMuMTAzMjg4LTcuNTc3NDI5LTIxLjg0NDc2LTE5LjY3NzIzMS0yNS40NTI4NDctMzMuMTMyODUzLTIuNzI5NDc5LTEwLjAzNDg1My0yLjU3MzM4Mi0yMC43Nzg4MzUuODI1MDg4LTMxLjA0NTYwNWwtMjUuMjgzMzY4LTE0LjU4Mzk4NmMtMS40NDk0NzkgMS43Nzk1MTQtMy4wMTkzNzYgMy40NTE5OS00LjYyNDk1MyA1LjA3MDk0NmwtLjA4MDI3OC4wNzU4MTljLTEwLjExMDY3MiAxMC4xNDE4OTEtMjMuMzYxMTM3NSAxNy4xOTc1MDctMzguMDg3ODQxMyAxOS41NDc4OTN2MjkuMjE3MDMxYzEwLjQ5NDIyNTkgMi4xOTQyODggMTkuOTAwMjI4MyA3LjQ0ODA5MSAyNy4yNzI0OTkzIDE0LjgxNTkwM2wuMDM1NjguMDgwMjc4YzkuODc4NzU1IDkuODI1MjM2IDE1Ljk5MzMyNSAyMy41MTcyMzUgMTUuOTkzMzI1IDM4LjU2OTUxNCAwIDE1LjAwMzIyLTYuMTE0NTcgMjguNjEwNDgtMTUuOTkzMzI1IDM4LjQ4OTIzNWwtLjAzNTY4LjE1NjA5OGMtOS45NDU2NTM3IDkuODc4NzU1LTIzLjU5NzUxMzMgMTUuOTkzMzI1LTM4LjY0OTc5MjMgMTUuOTkzMzI1LTE0Ljk3MjAwMDIgMC0yOC42NDE2OTk1LTYuMTE0NTctMzguNTYwNTkzOS0xNS45OTMzMjVoLS4wMzU2Nzk1di0uMTU2MDk4Yy05Ljg5MjEzNDgtOS44Nzg3NTUtMTYuMDIwMDg0OC0yMy40ODYwMTUtMTYuMDIwMDg0OC0zOC40ODkyMzUgMC0xNS4wNTIyNzkgNi4xMjc5NS0yOC43NDQyNzggMTYuMDIwMDg0OC0zOC41Njk1MTR2LS4wODAyNzhoLjAzNTY3OTVjNy4zNTg4OTE5LTcuMzY3ODEyIDE2Ljc3ODI3MzctMTIuNjIxNjE1IDI3LjI0NTc0LTE0LjgxNTkwM3YtMjkuMjE3MDMxYy0xNC43NDAwODM2LTIuMzUwMzg2LTI3Ljk1MDQwOTctOS40MDYwMDItMzguMDQ3NzAxNS0xOS41NDc4OTNsLS4xMDcwMzg0LS4wNzU4MTljLTEyLjYyMTYxNDcyLTEyLjY3NTEzNC0yMC41MTEyMzg5LTMwLjEwNDU1OC0yMC41MTEyMzg5LTQ5LjQ0MjgzNCAwLTE5LjI4NDc1NyA3Ljg4OTYyNDE4LTM2LjcxNDE4MSAyMC41MTEyMzg5LTQ5LjM4OTMxNWguMTA3MDM4NGMxMC4wOTcyOTE4LTEwLjE5MDk1MSAyMy4zMDc2MTc5LTE3LjI0NjU2NyAzOC4wNDc3MDE1LTE5LjY3Mjc3MXYtMjkuMDg3NjkzYy0xMC40Njc0NjYzLTIuMjc0NTY3LTE5Ljg4Njg0ODEtNy41MjM5MS0yNy4yNDU3NC0xNC44NDI2NjI1aC0uMDM1Njc5NXYtLjA4MDI3ODhjLTkuODkyMTM0OC05LjkyNzgxNDMtMTYuMDIwMDg0OC0yMy41MTcyMzQ4LTE2LjAyMDA4NDgtMzguNTY5NTEzOCAwLTE0Ljk3NjQ2MDIgNi4xMjc5NS0yOC42OTUyMTg4IDE2LjAyMDA4NDgtMzguNTczOTczOGwuMDM1Njc5NS0uMDQ5MDU5M2M5LjkxODg5NDQtOS45MDU1MTQ1NiAyMy41ODg1OTM3LTE2LjAyMDA4NDggMzguNTYwNTkzOS0xNi4wMjAwODQ4IDE1LjA1MjI3OSAwIDI4LjcwNDEzODYgNi4xMTQ1NzAyNCAzOC42NDk3OTIzIDE2LjAyMDA4NDh2LjA0OTA1OTNoLjAzNTY4YzkuODc4NzU1IDkuODc4NzU1IDE1Ljk5MzMyNSAyMy41OTc1MTM2IDE1Ljk5MzMyNSAzOC41NzM5NzM4IDAgMTUuMDUyMjc5LTYuMTE0NTcgMjguNjQxNjk5NS0xNS45OTMzMjUgMzguNTY5NTEzOGwtLjAzNTY4LjA4MDI3ODhjLTcuMzcyMjcxIDcuMzE4NzUyNS0xNi43NzgyNzM0IDEyLjU2ODA5NTUtMjcuMjcyNDk5MyAxNC44NDI2NjI1em0xNDIuMDE3Njk1My0xOS4zOTE3OTYtLjIwOTYxNy0uMzEyMTk1Yy0zLjQ5MjEyOS01Ljg4MjY1NC05LjA1ODEyNy05LjgwMjkzNi0xNS4yMTI4MzctMTEuNTAyMTcxLTYuMzQ2NDg3LTEuNjcyNDc2LTEzLjE5Njk0Ni0uOTYzMzQ2LTE5LjI4NDc1NyAyLjUxMDk0M2guMDQwMTRjLTYuMDc0NDMxIDMuNDQ3NTI5LTEwLjEzNzQzMSA5LjA5MzgwNi0xMS44MzY2NjYgMTUuNDE3OTk0LTEuNjcyNDc2IDYuMjcwNjY3LS45NDEwNDcgMTMuMTk2OTQ2IDIuNTUxMDgyIDE5LjIzMTIzN2wuMTE1OTU4LjE2MDU1OGMzLjUwMTA0OSA1Ljk1NDAxMiA5LjA2NzA0NyA5Ljk1MDExNCAxNS4yODQxOTYgMTEuNTY5MDcgNi4yNDgzNjggMS43NTI3NTQgMTMuMjEwMzI2IDEuMDIxMzI1IDE5LjIwODkzOC0yLjQ3OTcyNGwuMzI1NTc1LS4xNTYwOTdjNS45MDQ5NTQtMy41Mjc4MDkgOS44Mzg2MTYtOS4wOTM4MDcgMTEuNDg0MzMyLTE1LjIwODM3NyAxLjY3MjQ3NS02LjI5NzQyOCAxLjAwNzk0NS0xMy4xOTY5NDYtMi40NjYzNDQtMTkuMjMxMjM4eiIvPjwvc3ZnPg==;" vertex="1" parent="YH9bnQY_dYv-W6tvIdSY-59">
          <mxGeometry x="7.3988005997001505" y="4" width="13.333333333333334" height="21.508333333333333" as="geometry" />
        </mxCell>
        <mxCell id="YH9bnQY_dYv-W6tvIdSY-61" style="edgeStyle=orthogonalEdgeStyle;rounded=0;orthogonalLoop=1;jettySize=auto;html=1;entryX=0.032;entryY=0.515;entryDx=0;entryDy=0;entryPerimeter=0;" edge="1" parent="YH9bnQY_dYv-W6tvIdSY-21" source="YH9bnQY_dYv-W6tvIdSY-25" target="YH9bnQY_dYv-W6tvIdSY-60">
          <mxGeometry relative="1" as="geometry" />
        </mxCell>
        <mxCell id="YH9bnQY_dYv-W6tvIdSY-63" value="" style="group" vertex="1" connectable="0" parent="YH9bnQY_dYv-W6tvIdSY-21">
          <mxGeometry x="387.0087907808863" y="125.19010676156586" width="115.96034482758618" height="60" as="geometry" />
        </mxCell>
        <mxCell id="YH9bnQY_dYv-W6tvIdSY-60" value="&lt;font style=&quot;font-size: 10px;&quot;&gt;&lt;br&gt;Pointed to data mart&amp;nbsp;&lt;/font&gt;&lt;div&gt;&lt;font style=&quot;font-size: 10px;&quot;&gt;for analytical data&lt;/font&gt;&lt;/div&gt;" style="rounded=1;whiteSpace=wrap;html=1;" vertex="1" parent="YH9bnQY_dYv-W6tvIdSY-63">
          <mxGeometry width="115.96034482758621" height="60" as="geometry" />
        </mxCell>
        <mxCell id="YH9bnQY_dYv-W6tvIdSY-62" value="" style="shape=image;verticalLabelPosition=bottom;labelBackgroundColor=default;verticalAlign=top;aspect=fixed;imageAspect=0;image=https://cdn.document360.io/logo/4749ddf8-aa05-4f3f-80e1-07a5d2d0f137/57409c415c7e4912a3c6a38dc50373f8-preset-logo-rgb.png;" vertex="1" parent="YH9bnQY_dYv-W6tvIdSY-63">
          <mxGeometry x="0.0013291591437084448" y="3.0698932384341333" width="38.81" height="11.74" as="geometry" />
        </mxCell>
      </root>
    </mxGraphModel>
  </diagram>
</mxfile>
